<?xml version="1.0" encoding="UTF-8" standalone="no"?>
<!-- Created with Inkscape (http://www.inkscape.org/) -->

<svg
   xmlns:dc="http://purl.org/dc/elements/1.1/"
   xmlns:cc="http://creativecommons.org/ns#"
   xmlns:rdf="http://www.w3.org/1999/02/22-rdf-syntax-ns#"
   xmlns:svg="http://www.w3.org/2000/svg"
   xmlns="http://www.w3.org/2000/svg"
   xmlns:xlink="http://www.w3.org/1999/xlink"
   xmlns:sodipodi="http://sodipodi.sourceforge.net/DTD/sodipodi-0.dtd"
   xmlns:inkscape="http://www.inkscape.org/namespaces/inkscape"
   width="1600"
   height="1200"
   id="svg2"
   version="1.1"
   inkscape:version="0.48.3.1 r9886"
   sodipodi:docname="polyprog_background.svg"
   inkscape:export-filename="/home/jowagner/polyprog/debianlive3/config/includes.binary/isolinux/splash.png"
   inkscape:export-xdpi="36"
   inkscape:export-ydpi="36">
  <defs
     id="defs4">
    <linearGradient
       gradientTransform="matrix(1,0,0,1.0029261,0,-0.07357562)"
       y2="50.958458"
       x2="20"
       y1="32.650223"
       x1="20"
       gradientUnits="userSpaceOnUse"
       id="linearGradient3827"
       xlink:href="#linearGradient3943"
       inkscape:collect="always" />
    <clipPath
       id="clipPath2853"
       clipPathUnits="userSpaceOnUse">
      <path
         id="path2855"
         d="m 0,595.276 841.89,0 L 841.89,0 0,0 0,595.276 z" />
    </clipPath>
    <linearGradient
       y2="61.745636"
       x2="17.755611"
       y1="73.105865"
       x1="12.958482"
       gradientUnits="userSpaceOnUse"
       id="linearGradient3791"
       xlink:href="#linearGradient3955"
       inkscape:collect="always" />
    <linearGradient
       y2="85.090134"
       x2="49.434525"
       y1="81.119278"
       x1="18.289635"
       gradientUnits="userSpaceOnUse"
       id="linearGradient3785"
       xlink:href="#linearGradient3669"
       inkscape:collect="always" />
    <linearGradient
       y2="60.848213"
       x2="77.035004"
       y1="82.587158"
       x1="56.924446"
       gradientUnits="userSpaceOnUse"
       id="linearGradient3779"
       xlink:href="#linearGradient3661"
       inkscape:collect="always" />
    <linearGradient
       y2="51.607056"
       x2="76.286873"
       y1="37.166111"
       x1="62.508163"
       gradientUnits="userSpaceOnUse"
       id="linearGradient3773"
       xlink:href="#linearGradient3623"
       inkscape:collect="always" />
    <linearGradient
       y2="17.139574"
       x2="87.548866"
       y1="51.041931"
       x1="81.900764"
       gradientUnits="userSpaceOnUse"
       id="linearGradient3767"
       xlink:href="#linearGradient3591"
       inkscape:collect="always" />
    <linearGradient
       y2="27.38809"
       x2="56.507107"
       y1="14.056746"
       x1="51.778996"
       gradientUnits="userSpaceOnUse"
       id="linearGradient3761"
       xlink:href="#linearGradient3639"
       inkscape:collect="always" />
    <linearGradient
       y2="13.27741"
       x2="82.979103"
       y1="10.471229"
       x1="55.303631"
       gradientUnits="userSpaceOnUse"
       id="linearGradient3755"
       xlink:href="#linearGradient3599"
       inkscape:collect="always" />
    <linearGradient
       y2="12.089258"
       x2="46.037498"
       y1="24.169594"
       x1="24.616385"
       gradientUnits="userSpaceOnUse"
       id="linearGradient3728"
       xlink:href="#linearGradient3949"
       inkscape:collect="always" />
    <linearGradient
       id="linearGradient3591">
      <stop
         id="stop3593"
         offset="0"
         style="stop-color:#ffa000;stop-opacity:1;" />
      <stop
         id="stop3595"
         offset="1"
         style="stop-color:#6bd08d;stop-opacity:1;" />
    </linearGradient>
    <linearGradient
       id="linearGradient3599">
      <stop
         id="stop3601"
         offset="0"
         style="stop-color:#ffa000;stop-opacity:1;" />
      <stop
         id="stop3603"
         offset="1"
         style="stop-color:#6bd08d;stop-opacity:1;" />
    </linearGradient>
    <linearGradient
       id="linearGradient3623">
      <stop
         id="stop3625"
         offset="0"
         style="stop-color:#97deaf;stop-opacity:1;" />
      <stop
         id="stop3627"
         offset="1"
         style="stop-color:#ffa000;stop-opacity:1;" />
    </linearGradient>
    <linearGradient
       id="linearGradient3639">
      <stop
         style="stop-color:#ffa000;stop-opacity:1;"
         offset="0"
         id="stop3641" />
      <stop
         style="stop-color:#97deaf;stop-opacity:1;"
         offset="1"
         id="stop3643" />
    </linearGradient>
    <linearGradient
       id="linearGradient3661"
       inkscape:collect="always">
      <stop
         id="stop3663"
         offset="0"
         style="stop-color:#7fd79c;stop-opacity:1" />
      <stop
         id="stop3665"
         offset="1"
         style="stop-color:#ffa000;stop-opacity:1" />
    </linearGradient>
    <linearGradient
       id="linearGradient3669"
       inkscape:collect="always">
      <stop
         id="stop3671"
         offset="0"
         style="stop-color:#ffa000;stop-opacity:1" />
      <stop
         id="stop3673"
         offset="1"
         style="stop-color:#7fd79c;stop-opacity:1" />
    </linearGradient>
    <linearGradient
       id="linearGradient3943">
      <stop
         style="stop-color:#ace5bf;stop-opacity:1;"
         offset="0"
         id="stop3945" />
      <stop
         style="stop-color:#50c878;stop-opacity:1;"
         offset="1"
         id="stop3947" />
    </linearGradient>
    <linearGradient
       id="linearGradient3949">
      <stop
         style="stop-color:#ace5bf;stop-opacity:1;"
         offset="0"
         id="stop3951" />
      <stop
         style="stop-color:#ffa000;stop-opacity:1;"
         offset="1"
         id="stop3953" />
    </linearGradient>
    <linearGradient
       id="linearGradient3955">
      <stop
         style="stop-color:#ffa000;stop-opacity:1"
         offset="0"
         id="stop3957" />
      <stop
         style="stop-color:#50c878;stop-opacity:1;"
         offset="1"
         id="stop3959" />
    </linearGradient>
  </defs>
  <sodipodi:namedview
     id="base"
     pagecolor="#ffffff"
     bordercolor="#666666"
     borderopacity="1.0"
     inkscape:pageopacity="0.0"
     inkscape:pageshadow="2"
     inkscape:zoom="0.38833333"
     inkscape:cx="1484.7216"
     inkscape:cy="520.63827"
     inkscape:document-units="px"
     inkscape:current-layer="layer3"
     showgrid="false"
     borderlayer="true"
     inkscape:window-width="1920"
     inkscape:window-height="1168"
     inkscape:window-x="1920"
     inkscape:window-y="0"
     inkscape:window-maximized="1" />
  <metadata
     id="metadata7">
    <rdf:RDF>
      <cc:Work
         rdf:about="">
        <dc:format>image/svg+xml</dc:format>
        <dc:type
           rdf:resource="http://purl.org/dc/dcmitype/StillImage" />
        <dc:title></dc:title>
      </cc:Work>
    </rdf:RDF>
  </metadata>
  <g
     inkscape:groupmode="layer"
     id="layer4"
     inkscape:label="Background">
    <image
       y="-2.4313378"
       x="-25.311182"
       id="image3927"
       xlink:href="file:///home/jowagner/polyprog/debianlive3/nasa.jpg"
       height="1208.8859"
       width="1764.3562" />
  </g>
  <g
     inkscape:label="Logo"
     inkscape:groupmode="layer"
     id="layer1"
     transform="translate(0,147.63782)">
    <g
       style="display:inline"
       id="g3875"
       transform="matrix(6.4257209,0,0,6.4257209,932.43337,590.52523)">
      <g
         style="display:inline"
         inkscape:label="Text"
         id="layer2">
        <path
           id="path3202"
           d="m 49.78125,8.5 a 1.50015,1.50015 0 0 0 -0.5,0.1875 l -30,16.8125 a 1.50015,1.50015 0 1 0 1.4375,2.59375 l 30,-16.78125 A 1.50015,1.50015 0 0 0 49.78125,8.5 z"
           style="font-size:medium;font-style:normal;font-variant:normal;font-weight:normal;font-stretch:normal;text-indent:0;text-align:start;text-decoration:none;line-height:normal;letter-spacing:normal;word-spacing:normal;text-transform:none;direction:ltr;block-progression:tb;writing-mode:lr-tb;text-anchor:start;color:#000000;fill:url(#linearGradient3728);fill-opacity:1;fill-rule:evenodd;stroke:none;stroke-width:3;marker:none;visibility:visible;display:inline;overflow:visible;enable-background:accumulate;font-family:AlArabiya;-inkscape-font-specification:AlArabiya"
           inkscape:connector-curvature="0" />
        <path
           id="path3206"
           d="M 19.8125,25.156284 A 1.50015,1.5045396 0 0 0 18.5,26.660674 l 0,25.22986 c 0.484182,-0.136236 0.961274,-0.219385 1.46875,-0.219391 0.520888,5e-6 1.031316,0.101653 1.53125,0.250732 l 0,-25.261201 a 1.50015,1.5045396 0 0 0 -1.6875,-1.50439 z"
           style="font-size:medium;font-style:normal;font-variant:normal;font-weight:normal;font-stretch:normal;text-indent:0;text-align:start;text-decoration:none;line-height:normal;letter-spacing:normal;word-spacing:normal;text-transform:none;direction:ltr;block-progression:tb;writing-mode:lr-tb;text-anchor:start;color:#000000;fill:url(#linearGradient3827);fill-opacity:1;fill-rule:evenodd;stroke:none;stroke-width:3;marker:none;visibility:visible;display:inline;overflow:visible;enable-background:accumulate;font-family:AlArabiya;-inkscape-font-specification:AlArabiya"
           inkscape:connector-curvature="0" />
        <path
           id="path3251"
           d="m 49.84375,8.5 a 1.50015,1.50015 0 0 0 0,3 L 87.1875,15.34375 A 1.50015,1.50015 0 1 0 87.5,12.375 L 50.15625,8.5 a 1.50015,1.50015 0 0 0 -0.3125,0 z"
           style="font-size:medium;font-style:normal;font-variant:normal;font-weight:normal;font-stretch:normal;text-indent:0;text-align:start;text-decoration:none;line-height:normal;letter-spacing:normal;word-spacing:normal;text-transform:none;direction:ltr;block-progression:tb;writing-mode:lr-tb;text-anchor:start;color:#000000;fill:url(#linearGradient3755);fill-opacity:1;fill-rule:evenodd;stroke:none;stroke-width:3;marker:none;visibility:visible;display:inline;overflow:visible;enable-background:accumulate;font-family:AlArabiya;-inkscape-font-specification:AlArabiya"
           inkscape:connector-curvature="0" />
        <path
           id="path3263"
           d="m 58.125,31.28125 a 1.50015,1.50015 0 0 0 -0.9375,2.5625 l 19.15625,20.0625 c 0.404881,-0.577924 0.926829,-1.05157 1.59375,-1.40625 0.292079,-0.154113 0.57425,-0.27899 0.875,-0.375 L 59.34375,31.75 A 1.50015,1.50015 0 0 0 58.125,31.28125 z"
           style="font-size:medium;font-style:normal;font-variant:normal;font-weight:normal;font-stretch:normal;text-indent:0;text-align:start;text-decoration:none;line-height:normal;letter-spacing:normal;word-spacing:normal;text-transform:none;direction:ltr;block-progression:tb;writing-mode:lr-tb;text-anchor:start;color:#000000;fill:url(#linearGradient3773);fill-opacity:1;fill-rule:evenodd;stroke:none;stroke-width:3;marker:none;visibility:visible;display:inline;overflow:visible;enable-background:accumulate;font-family:AlArabiya;-inkscape-font-specification:AlArabiya"
           inkscape:connector-curvature="0" />
        <path
           id="path3259"
           d="m 76.65625,59.1875 -23.625,25.375 a 1.5032517,1.5032517 0 1 0 2.1875,2.0625 L 79.3125,60.71875 C 78.88429,60.612647 78.474044,60.454379 78.0625,60.25 77.504488,59.968555 77.034732,59.603515 76.65625,59.1875 z"
           style="font-size:medium;font-style:normal;font-variant:normal;font-weight:normal;font-stretch:normal;text-indent:0;text-align:start;text-decoration:none;line-height:normal;letter-spacing:normal;word-spacing:normal;text-transform:none;direction:ltr;block-progression:tb;writing-mode:lr-tb;text-anchor:start;color:#000000;fill:url(#linearGradient3779);fill-opacity:1;fill-rule:evenodd;stroke:none;stroke-width:3;marker:none;visibility:visible;display:inline;overflow:visible;enable-background:accumulate;font-family:AlArabiya;-inkscape-font-specification:AlArabiya"
           inkscape:connector-curvature="0" />
        <path
           id="path3255"
           d="m 9.875,78.5 a 1.5003255,1.5003255 0 1 0 -0.0625,3 l 44.125,5.59375 A 1.50015,1.50015 0 1 0 54.3125,84.125 L 10.1875,78.5 a 1.50015,1.50015 0 0 0 -0.3125,0 z"
           style="font-size:medium;font-style:normal;font-variant:normal;font-weight:normal;font-stretch:normal;text-indent:0;text-align:start;text-decoration:none;line-height:normal;letter-spacing:normal;word-spacing:normal;text-transform:none;direction:ltr;block-progression:tb;writing-mode:lr-tb;text-anchor:start;color:#000000;fill:url(#linearGradient3785);fill-opacity:1;fill-rule:evenodd;stroke:none;stroke-width:3;marker:none;visibility:visible;display:inline;overflow:visible;enable-background:accumulate;font-family:AlArabiya;-inkscape-font-specification:AlArabiya"
           inkscape:connector-curvature="0" />
        <path
           id="path3208"
           d="m 16.875,60.15625 -8.25,19.25 a 1.50015,1.50015 0 1 0 2.75,1.1875 L 19.75,61.0625 c -0.828058,-0.03548 -1.610873,-0.242371 -2.375,-0.625 -0.174206,-0.08859 -0.344034,-0.180473 -0.5,-0.28125 z"
           style="font-size:medium;font-style:normal;font-variant:normal;font-weight:normal;font-stretch:normal;text-indent:0;text-align:start;text-decoration:none;line-height:normal;letter-spacing:normal;word-spacing:normal;text-transform:none;direction:ltr;block-progression:tb;writing-mode:lr-tb;text-anchor:start;color:#000000;fill:url(#linearGradient3791);fill-opacity:1;fill-rule:evenodd;stroke:none;stroke-width:3;marker:none;visibility:visible;display:inline;overflow:visible;enable-background:accumulate;font-family:AlArabiya;-inkscape-font-specification:AlArabiya"
           inkscape:connector-curvature="0" />
        <path
           id="path3210"
           d="m 50.03125,8.46875 a 1.50015,1.50015 0 0 0 -1.4375,2.0625 L 57.53125,33.75 a 1.5088444,1.5088444 0 1 0 2.8125,-1.09375 l -8.9375,-23.1875 a 1.50015,1.50015 0 0 0 -1.375,-1 z"
           style="font-size:medium;font-style:normal;font-variant:normal;font-weight:normal;font-stretch:normal;text-indent:0;text-align:start;text-decoration:none;line-height:normal;letter-spacing:normal;word-spacing:normal;text-transform:none;direction:ltr;block-progression:tb;writing-mode:lr-tb;text-anchor:start;color:#000000;fill:url(#linearGradient3761);fill-opacity:1;fill-rule:evenodd;stroke:none;stroke-width:3;marker:none;visibility:visible;display:inline;overflow:visible;enable-background:accumulate;font-family:AlArabiya;-inkscape-font-specification:AlArabiya"
           inkscape:connector-curvature="0" />
        <path
           id="path3212"
           d="m 87.84375,13 a 1.50015,1.50015 0 0 0 -1.25,1.28125 L 80.0625,51.875 c 0.153597,-0.0129 0.312805,-0.03125 0.46875,-0.03125 0.855403,9e-6 1.678334,0.211562 2.46875,0.625 l 6.53125,-37.6875 A 1.50015,1.50015 0 0 0 88,13 1.50015,1.50015 0 0 0 87.84375,13 z"
           style="font-size:medium;font-style:normal;font-variant:normal;font-weight:normal;font-stretch:normal;text-indent:0;text-align:start;text-decoration:none;line-height:normal;letter-spacing:normal;word-spacing:normal;text-transform:none;direction:ltr;block-progression:tb;writing-mode:lr-tb;text-anchor:start;color:#000000;fill:url(#linearGradient3767);fill-opacity:1;fill-rule:evenodd;stroke:none;stroke-width:3;marker:none;visibility:visible;display:inline;overflow:visible;enable-background:accumulate;font-family:AlArabiya;-inkscape-font-specification:AlArabiya"
           inkscape:connector-curvature="0" />
        <path
           id="path3188"
           d="m 19.6,22.034375 c -0.912032,9e-6 -1.785149,0.210089 -2.625,0.65625 -0.833293,0.44618 -1.460082,1.062958 -1.90625,1.84375 -0.446172,0.774244 -0.687501,1.567958 -0.6875,2.375 -10e-7,0.793926 0.216637,1.552946 0.65625,2.28125 0.439609,0.728311 1.097648,1.292264 1.9375,1.71875 0.839848,0.419926 1.706405,0.65625 2.625,0.65625 0.925143,0 1.809832,-0.229762 2.65625,-0.65625 0.852965,-0.433048 1.511002,-0.996998 1.9375,-1.71875 0.433037,-0.728306 0.624988,-1.47576 0.625,-2.25 -1.1e-5,-0.813602 -0.191963,-1.607316 -0.625,-2.375 -0.433059,-0.774232 -1.084532,-1.391008 -1.9375,-1.84375 C 21.409829,22.26259 20.51858,22.034383 19.6,22.034375 z"
           style="font-size:20.15645409px;font-style:normal;font-variant:normal;font-weight:bold;font-stretch:normal;text-align:center;line-height:100%;writing-mode:lr-tb;text-anchor:middle;fill:#ace5bf;fill-opacity:1;stroke:#ace5bf;stroke-width:1px;stroke-linecap:butt;stroke-linejoin:miter;stroke-opacity:1;display:inline;font-family:Courier New;-inkscape-font-specification:Courier New Bold"
           inkscape:connector-curvature="0" />
        <path
           id="path3190"
           d="m 58.4,28.167708 c -0.912032,9e-6 -1.785149,0.210089 -2.625,0.65625 -0.833293,0.44618 -1.460082,1.062958 -1.90625,1.84375 -0.446172,0.774244 -0.687501,1.567958 -0.6875,2.375 -10e-7,0.793926 0.216637,1.552946 0.65625,2.28125 0.439609,0.728311 1.097648,1.292264 1.9375,1.71875 0.839848,0.419926 1.706405,0.65625 2.625,0.65625 0.925143,0 1.809832,-0.229762 2.65625,-0.65625 0.852965,-0.433048 1.511002,-0.996998 1.9375,-1.71875 0.433037,-0.728306 0.624988,-1.47576 0.625,-2.25 -1.1e-5,-0.813602 -0.191963,-1.607316 -0.625,-2.375 -0.433059,-0.774232 -1.084532,-1.391008 -1.9375,-1.84375 -0.846421,-0.459285 -1.73767,-0.687492 -2.65625,-0.6875 z"
           style="font-size:20.15645409px;font-style:normal;font-variant:normal;font-weight:bold;font-stretch:normal;text-align:center;line-height:100%;writing-mode:lr-tb;text-anchor:middle;fill:#97deaf;fill-opacity:1;stroke:#97deaf;stroke-width:1px;stroke-linecap:butt;stroke-linejoin:miter;stroke-opacity:1;display:inline;font-family:Courier New;-inkscape-font-specification:Courier New Bold"
           inkscape:connector-curvature="0" />
        <path
           id="path3192"
           d="m 87.466667,10.164263 c -0.583701,5e-6 -1.142495,0.133828 -1.68,0.418036 -0.533308,0.28422 -0.934453,0.677112 -1.22,1.174482 -0.28555,0.493199 -0.440001,0.998801 -0.44,1.512892 -10e-7,0.505737 0.138648,0.989238 0.42,1.453173 0.28135,0.46394 0.702495,0.823182 1.24,1.094856 0.537503,0.267496 1.092099,0.418036 1.68,0.418036 0.592091,0 1.158292,-0.14636 1.7,-0.418036 0.545897,-0.275854 0.967041,-0.635095 1.24,-1.094856 0.277144,-0.463936 0.399992,-0.94007 0.4,-1.433266 -7e-6,-0.518271 -0.122856,-1.023872 -0.4,-1.512893 -0.277158,-0.493191 -0.694101,-0.886082 -1.24,-1.174482 -0.54171,-0.292568 -1.112109,-0.437937 -1.7,-0.437942 z"
           style="font-size:20.15645409px;font-style:normal;font-variant:normal;font-weight:bold;font-stretch:normal;text-align:center;line-height:100%;writing-mode:lr-tb;text-anchor:middle;fill:#6bd08d;fill-opacity:1;stroke:#6bd08d;stroke-width:1.00000012px;stroke-linecap:butt;stroke-linejoin:miter;stroke-opacity:1;display:inline;font-family:Courier New;-inkscape-font-specification:Courier New Bold"
           inkscape:connector-curvature="0" />
        <path
           id="path3194"
           d="m 53.866668,82.440935 c -0.632415,6e-6 -1.237846,0.145143 -1.82021,0.45338 -0.577816,0.30825 -1.01244,0.73436 -1.321819,1.273781 -0.309381,0.534898 -0.476722,1.083247 -0.476721,1.640804 -10e-7,0.548495 0.150219,1.072875 0.455052,1.576034 0.304831,0.503164 0.761124,0.89278 1.343488,1.187424 0.582362,0.290112 1.183244,0.453379 1.82021,0.453379 0.641506,0 1.254961,-0.158734 1.841879,-0.453379 0.591457,-0.299178 1.047748,-0.688791 1.343488,-1.187424 0.300273,-0.503161 0.433375,-1.01955 0.433383,-1.554445 -8e-6,-0.562089 -0.13311,-1.110438 -0.433383,-1.640803 -0.300289,-0.53489 -0.752029,-0.960998 -1.343488,-1.273782 -0.58692,-0.317303 -1.204924,-0.474963 -1.841879,-0.474969 z"
           style="font-size:20.15645409px;font-style:normal;font-variant:normal;font-weight:bold;font-stretch:normal;text-align:center;line-height:100%;writing-mode:lr-tb;text-anchor:middle;fill:#7fd79c;fill-opacity:1;stroke:#7fd79c;stroke-width:1px;stroke-linecap:butt;stroke-linejoin:miter;stroke-opacity:1;display:inline;font-family:Courier New;-inkscape-font-specification:Courier New Bold"
           inkscape:connector-curvature="0" />
        <path
           id="path3196"
           d="m 10,73.403409 c -1.284854,1.2e-5 -2.514886,0.296683 -3.698054,0.926743 -1.173928,0.630087 -2.056937,1.501089 -2.685491,2.603709 -0.628559,1.093372 -0.968539,2.21424 -0.968538,3.353929 -1e-6,1.121167 0.305195,2.19304 0.924514,3.221537 0.619313,1.028507 1.546347,1.82491 2.729515,2.427185 C 7.48511,86.529524 8.7059,86.863256 10,86.863256 c 1.303325,0 2.54966,-0.324465 3.742079,-0.926744 1.201642,-0.611542 2.128673,-1.407941 2.729515,-2.427185 0.610055,-1.0285 0.880473,-2.08404 0.880489,-3.177407 -1.5e-5,-1.148953 -0.270434,-2.26982 -0.880489,-3.353929 C 15.861509,75.884636 14.943725,75.013637 13.742079,74.374283 12.549656,73.72569 11.29408,73.40342 10,73.403409 z"
           style="font-size:20.15645409px;font-style:normal;font-variant:normal;font-weight:bold;font-stretch:normal;text-align:center;line-height:100%;writing-mode:lr-tb;text-anchor:middle;fill:#ffa000;fill-opacity:1;stroke:#ffa000;stroke-width:1px;stroke-linecap:butt;stroke-linejoin:miter;stroke-opacity:1;display:inline;font-family:Courier New;-inkscape-font-specification:Courier New Bold"
           inkscape:connector-curvature="0" />
        <path
           id="path3198"
           d="m 50.133334,5.4270888 c -0.748922,7.4e-6 -1.465889,0.1722038 -2.155539,0.537909 -0.684265,0.3657208 -1.198958,0.8712757 -1.565332,1.5112682 -0.366378,0.6346253 -0.564547,1.2852096 -0.564546,1.9467184 -1e-6,0.6507576 0.177893,1.2729046 0.538885,1.8698736 0.360988,0.596976 0.901342,1.059232 1.590993,1.40881 0.689648,0.344201 1.401227,0.537909 2.155539,0.537909 0.759688,0 1.486157,-0.188329 2.1812,-0.537909 0.700419,-0.354957 1.240771,-0.81721 1.590993,-1.40881 0.355592,-0.596971 0.513214,-1.209637 0.513224,-1.8442589 C 54.418742,8.7817132 54.261119,8.131129 53.905527,7.5018807 53.549917,6.8672653 53.014955,6.361712 52.314534,5.9906125 51.619489,5.61415 50.887633,5.4270953 50.133334,5.4270888 z"
           style="font-size:20.15645409px;font-style:normal;font-variant:normal;font-weight:bold;font-stretch:normal;text-align:center;line-height:100%;writing-mode:lr-tb;text-anchor:middle;fill:#ffa000;fill-opacity:1;stroke:#ffa000;stroke-width:1px;stroke-linecap:butt;stroke-linejoin:miter;stroke-opacity:1;display:inline;font-family:Courier New;-inkscape-font-specification:Courier New Bold"
           inkscape:connector-curvature="0" />
      </g>
      <g
         style="display:inline"
         inkscape:label="Old text"
         id="layer1-9">
        <path
           d="m 6.7612827,56.63657 0,2.076297 2.036936,0 c 0.4854459,2e-6 0.829855,0.09512 1.0332282,0.285368 0.2099171,0.183687 0.3148811,0.426413 0.3148891,0.72818 -8e-6,0.295209 -0.104972,0.537935 -0.3148891,0.72818 -0.2033732,0.183685 -0.5477823,0.275528 -1.0332282,0.275528 l -4.3690799,0 c -0.4854555,0 -0.8331445,-0.09184 -1.0430689,-0.275528 -0.2033667,-0.190245 -0.3050495,-0.436251 -0.305048,-0.73802 -1.5e-6,-0.295207 0.1049612,-0.534653 0.3148886,-0.71834 0.2099239,-0.190243 0.554333,-0.285366 1.0332283,-0.285368 l 0.3148886,0 0,-7.891896 -0.3148886,0 c -0.4854555,1e-5 -0.8331445,-0.09183 -1.0430689,-0.275528 -0.2033667,-0.190235 -0.3050495,-0.436241 -0.305048,-0.73802 -1.5e-6,-0.301757 0.1016813,-0.544484 0.305048,-0.72818 0.2099244,-0.190234 0.5576134,-0.285356 1.0430689,-0.285368 l 4.6446075,0.0098 c 1.3645087,1.2e-5 2.4436577,0.373942 3.2374487,1.121791 0.800331,0.74131 1.200501,1.646614 1.200513,2.715915 -1.2e-5,0.590423 -0.134495,1.148038 -0.403451,1.672846 -0.203376,0.393617 -0.544506,0.783946 -1.023388,1.170991 -0.472343,0.380496 -0.957796,0.669143 -1.45636,0.865944 -0.492022,0.19025 -1.1447591,0.285373 -1.9582137,0.285368 l -1.9090126,0 m 0,-2.017255 1.8696515,0 c 0.8790563,6e-6 1.5744348,-0.196799 2.0861368,-0.590416 0.518245,-0.400164 0.777372,-0.879057 0.777381,-1.43668 -9e-6,-0.472324 -0.209935,-0.885615 -0.629777,-1.239874 C 10.451376,50.998104 9.8576799,50.82098 9.0835864,50.82097 l -2.3223037,0 0,3.798344"
           style="font-size:40px;font-style:normal;font-weight:bold;fill:#000000;fill-opacity:1;stroke:#000000;stroke-width:0.5;stroke-miterlimit:4;stroke-opacity:1;stroke-dasharray:none;font-family:Bitstream Vera Sans;-inkscape-font-specification:Courier New Bold"
           id="path3814"
           inkscape:connector-curvature="0" />
        <path
           d="m 33.103686,47.967292 0,10.745575 2.420706,0 c 0.485444,2e-6 0.829853,0.09512 1.033229,0.285368 0.209915,0.183687 0.314877,0.426413 0.314888,0.72818 -1.1e-5,0.295209 -0.104973,0.537935 -0.314888,0.72818 -0.203376,0.183685 -0.547785,0.275528 -1.033229,0.275528 l -6.858668,0 c -0.485455,0 -0.833145,-0.09184 -1.043069,-0.275528 -0.203367,-0.190245 -0.305049,-0.436251 -0.305048,-0.73802 -10e-7,-0.295207 0.101681,-0.534653 0.305048,-0.71834 0.209924,-0.190243 0.557614,-0.285366 1.043069,-0.285368 l 2.420706,0 0,-8.728319 -1.623644,0 c -0.478896,1e-5 -0.823305,-0.09183 -1.033228,-0.275528 -0.209928,-0.190234 -0.314891,-0.43624 -0.314889,-0.73802 -2e-6,-0.295196 0.10168,-0.534643 0.305048,-0.71834 0.209923,-0.190232 0.557612,-0.285355 1.043069,-0.285368 l 3.6409,0"
           style="font-size:40px;font-style:normal;font-weight:bold;fill:#000000;fill-opacity:1;stroke:#000000;stroke-width:0.5;stroke-miterlimit:4;stroke-opacity:1;stroke-dasharray:none;font-family:Bitstream Vera Sans;-inkscape-font-specification:Courier New Bold"
           id="path3818"
           inkscape:connector-curvature="0" />
        <path
           d="m 43.052199,60.661241 -3.493296,-6.848828 c -0.32801,-0.03935 -0.577297,-0.150877 -0.747861,-0.33457 -0.170565,-0.183677 -0.255847,-0.406723 -0.255847,-0.669138 0,-0.30176 0.101683,-0.544486 0.305049,-0.72818 0.209925,-0.190236 0.557614,-0.285359 1.043068,-0.285367 l 1.840131,0 c 0.485449,8e-6 0.829858,0.09513 1.033228,0.285367 0.209921,0.183694 0.314884,0.42642 0.314889,0.72818 -5e-6,0.295216 -0.104968,0.537942 -0.314889,0.72818 -0.20337,0.183692 -0.528098,0.275535 -0.974186,0.275528 l 2.381345,4.634767 2.361665,-4.634767 c -0.43298,7e-6 -0.754428,-0.09184 -0.964347,-0.275528 -0.203373,-0.190238 -0.305055,-0.436244 -0.305048,-0.73802 -7e-6,-0.2952 0.101675,-0.534646 0.305048,-0.71834 0.209919,-0.190236 0.557607,-0.285359 1.043069,-0.285367 l 1.899172,0 c 0.478882,8e-6 0.820011,0.09513 1.023388,0.285367 0.209914,0.183694 0.314877,0.42642 0.314889,0.72818 -1.2e-5,0.268975 -0.08857,0.498581 -0.265688,0.688819 -0.177136,0.183692 -0.439542,0.288655 -0.787221,0.314889 l -4.624927,9.11209 c 0.505127,-2e-6 0.836416,0.0492 0.993867,0.147604 0.314881,0.203363 0.472326,0.492011 0.472333,0.865944 -7e-6,0.295204 -0.10497,0.534651 -0.314888,0.718339 -0.203373,0.190241 -0.547782,0.285364 -1.033229,0.285368 l -4.398601,0 c -0.485454,-4e-6 -0.833143,-0.09513 -1.043068,-0.285368 -0.203366,-0.183688 -0.305049,-0.423135 -0.305049,-0.718339 0,-0.301771 0.101683,-0.547778 0.305049,-0.738021 0.209925,-0.183687 0.557614,-0.275529 1.043068,-0.275527 l 2.007416,0 1.141471,-2.263262"
           style="font-size:40px;font-style:normal;font-weight:bold;fill:#000000;fill-opacity:1;stroke:#000000;stroke-width:0.5;stroke-miterlimit:4;stroke-opacity:1;stroke-dasharray:none;font-family:Bitstream Vera Sans;-inkscape-font-specification:Courier New Bold"
           id="path3820"
           inkscape:connector-curvature="0" />
        <path
           d="m 55.096689,56.63657 0,2.076297 2.036937,0 c 0.485445,2e-6 0.829855,0.09512 1.033228,0.285368 0.209917,0.183687 0.31488,0.426413 0.314888,0.72818 -8e-6,0.295209 -0.104971,0.537935 -0.314888,0.72818 -0.203373,0.183685 -0.547783,0.275528 -1.033228,0.275528 l -4.36908,0 c -0.485456,0 -0.833145,-0.09184 -1.043069,-0.275528 -0.203367,-0.190245 -0.30505,-0.436251 -0.305049,-0.73802 -1e-6,-0.295207 0.104962,-0.534653 0.314889,-0.71834 0.209924,-0.190243 0.554333,-0.285366 1.033229,-0.285368 l 0.314888,0 0,-7.891896 -0.314888,0 c -0.485456,1e-5 -0.833145,-0.09183 -1.043069,-0.275528 -0.203367,-0.190235 -0.30505,-0.436241 -0.305049,-0.73802 -1e-6,-0.301757 0.101682,-0.544484 0.305049,-0.72818 0.209924,-0.190234 0.557613,-0.285356 1.043069,-0.285368 l 4.644607,0.0098 c 1.364509,1.2e-5 2.443657,0.373942 3.237449,1.121791 0.80033,0.74131 1.200501,1.646614 1.200513,2.715915 -1.2e-5,0.590423 -0.134495,1.148038 -0.403451,1.672846 -0.203377,0.393617 -0.544506,0.783946 -1.023389,1.170991 -0.472342,0.380496 -0.957795,0.669143 -1.456359,0.865944 -0.492022,0.19025 -1.144759,0.285373 -1.958214,0.285368 l -1.909013,0 m 0,-2.017255 1.869652,0 c 0.879056,6e-6 1.574435,-0.196799 2.086137,-0.590416 0.518245,-0.400164 0.777372,-0.879057 0.777381,-1.43668 -9e-6,-0.472324 -0.209935,-0.885615 -0.629777,-1.239874 -0.4133,-0.35424 -1.006996,-0.531364 -1.781089,-0.531374 l -2.322304,0 0,3.798344"
           style="font-size:40px;font-style:normal;font-weight:bold;fill:#000000;fill-opacity:1;stroke:#000000;stroke-width:0.5;stroke-miterlimit:4;stroke-opacity:1;stroke-dasharray:none;font-family:Bitstream Vera Sans;-inkscape-font-specification:Courier New Bold"
           id="path3822"
           inkscape:connector-curvature="0" />
        <path
           d="m 67.928402,51.795158 0,1.259554 c 0.846257,-0.610088 1.512114,-1.016819 1.997575,-1.220193 0.492005,-0.203357 0.951217,-0.30504 1.377637,-0.305049 0.656009,9e-6 1.292345,0.242736 1.909013,0.72818 0.41984,0.328017 0.629765,0.662586 0.629777,1.003708 -1.2e-5,0.288655 -0.101694,0.534661 -0.305049,0.73802 -0.196816,0.196812 -0.436262,0.295214 -0.718339,0.295208 -0.249297,6e-6 -0.511704,-0.124637 -0.787222,-0.37393 -0.275537,-0.24928 -0.521543,-0.373924 -0.73802,-0.373931 -0.282097,7e-6 -0.705228,0.177133 -1.269395,0.531375 -0.557622,0.354256 -1.256281,0.88563 -2.095977,1.594124 l 0,3.040643 2.873359,0 c 0.485444,2e-6 0.829853,0.09512 1.033228,0.285368 0.209916,0.183687 0.314879,0.426413 0.314888,0.72818 -9e-6,0.295209 -0.104972,0.537935 -0.314888,0.72818 -0.203375,0.183685 -0.547784,0.275528 -1.033228,0.275528 l -6.091128,0 c -0.485455,0 -0.833144,-0.09184 -1.043068,-0.275528 -0.203367,-0.190245 -0.30505,-0.436251 -0.305049,-0.73802 -10e-7,-0.295207 0.101682,-0.534653 0.305049,-0.71834 0.209924,-0.190243 0.557613,-0.285366 1.043068,-0.285368 l 1.200513,0 0,-4.900454 -0.72818,0 c -0.485455,7e-6 -0.833145,-0.09184 -1.043068,-0.275528 -0.203367,-0.190238 -0.30505,-0.436244 -0.305049,-0.73802 -10e-7,-0.2952 0.101682,-0.534646 0.305049,-0.71834 0.209923,-0.190236 0.557613,-0.285359 1.043068,-0.285367 l 2.745436,0"
           style="font-size:40px;font-style:normal;font-weight:bold;fill:#000000;fill-opacity:1;stroke:#000000;stroke-width:0.5;stroke-miterlimit:4;stroke-opacity:1;stroke-dasharray:none;font-family:Bitstream Vera Sans;-inkscape-font-specification:Courier New Bold"
           id="path3824"
           inkscape:connector-curvature="0" />
        <path
           d="m 94.7333,52.395414 0,-0.600256 2.361665,0 c 0.485437,8e-6 0.82985,0.09513 1.033228,0.285367 0.209912,0.183694 0.314873,0.42642 0.314888,0.72818 -1.5e-5,0.295216 -0.104976,0.537942 -0.314888,0.72818 -0.203378,0.183692 -0.547791,0.275535 -1.033228,0.275528 l -0.344413,0 0,7.340841 c -1e-5,0.708499 -0.150894,1.325155 -0.452653,1.849971 -0.295215,0.531372 -0.751148,0.987304 -1.367796,1.367798 -0.616663,0.380486 -1.312043,0.570731 -2.086135,0.570735 l -2.282943,0 c -0.485457,-4e-6 -0.83315,-0.09513 -1.043072,-0.285368 -0.203368,-0.183688 -0.305049,-0.423135 -0.305049,-0.718339 0,-0.301771 0.101681,-0.547778 0.305049,-0.738021 0.209922,-0.183687 0.557615,-0.275529 1.043072,-0.275527 l 2.2239,0 c 0.616648,-2e-6 1.095541,-0.167287 1.436678,-0.501854 0.341123,-0.334571 0.511687,-0.757701 0.511697,-1.269395 l 0,-0.984027 c -0.446104,0.288649 -0.902033,0.505134 -1.367801,0.649458 -0.459218,0.144324 -0.931551,0.216486 -1.416999,0.216486 -1.37108,0 -2.519109,-0.455932 -3.444093,-1.367797 -0.924987,-0.918424 -1.387479,-2.050054 -1.387479,-3.394894 0,-1.351391 0.462492,-2.483021 1.387479,-3.394893 0.924984,-0.918416 2.073013,-1.377629 3.444093,-1.377638 0.511687,9e-6 0.997144,0.07545 1.456363,0.226327 0.465763,0.144332 0.908577,0.367378 1.328437,0.669138 m -0.0098,3.867226 c -6e-6,-0.741295 -0.275536,-1.384192 -0.826581,-1.928693 -0.5445,-0.544488 -1.200521,-0.816735 -1.968054,-0.816743 -0.767547,8e-6 -1.426843,0.272255 -1.977893,0.816743 -0.544501,0.544501 -0.816746,1.187398 -0.816746,1.928693 0,0.747865 0.272245,1.394041 0.816746,1.938533 0.55105,0.537937 1.210346,0.806904 1.977893,0.806902 0.767533,2e-6 1.423554,-0.268965 1.968054,-0.806902 0.551045,-0.544492 0.826575,-1.190668 0.826581,-1.938533"
           style="font-size:40px;font-style:normal;font-weight:bold;fill:#000000;fill-opacity:1;stroke:#000000;stroke-width:0.5;stroke-miterlimit:4;stroke-opacity:1;stroke-dasharray:none;font-family:Bitstream Vera Sans;-inkscape-font-specification:Courier New Bold"
           id="path3828"
           inkscape:connector-curvature="0" />
        <flowRoot
           style="font-size:20px;font-style:normal;font-variant:normal;font-weight:normal;font-stretch:normal;fill:#000000;fill-opacity:1;stroke:none;font-family:Courier New;-inkscape-font-specification:Courier New"
           id="flowRoot2922"
           xml:space="preserve"><flowRegion
             id="flowRegion2924"><rect
               style="font-size:20px;font-style:normal;font-variant:normal;font-weight:normal;font-stretch:normal;font-family:Courier New;-inkscape-font-specification:Courier New"
               y="32.025349"
               x="101.16228"
               height="62.37674"
               width="87.167496"
               id="rect2926" /></flowRegion><flowPara
             id="flowPara2928">PolyProgP</flowPara></flowRoot>      </g>
      <g
         style="display:inline"
         inkscape:label="New Text"
         id="layer3">
        <path
           d="m 6.7037872,56.699827 0,2.080543 2.0411023,0 c 0.4864403,2e-6 0.8315522,0.09532 1.0353409,0.285952 0.2103466,0.184062 0.3155226,0.427285 0.3155326,0.729669 -10e-6,0.295812 -0.105186,0.539035 -0.3155326,0.729669 -0.2037887,0.184061 -0.5489006,0.276091 -1.0353409,0.276091 l -4.3780177,0 c -0.4864453,0 -0.8348489,-0.09203 -1.0452006,-0.276091 -0.2037836,-0.190634 -0.3056729,-0.437143 -0.3056729,-0.739529 0,-0.295811 0.1051759,-0.535747 0.3155326,-0.719809 0.2103568,-0.190633 0.5554687,-0.28595 1.0353409,-0.285952 l 0.3155326,0 0,-7.908036 -0.3155326,0 c -0.4864453,10e-6 -0.8348489,-0.09202 -1.0452006,-0.276091 -0.2037836,-0.190624 -0.3056729,-0.437134 -0.3056729,-0.73953 0,-0.302374 0.1018893,-0.545597 0.3056729,-0.729669 0.2103517,-0.190623 0.5587553,-0.28594 1.0452006,-0.285952 l 4.6541063,0.0099 c 1.3673009,1.2e-5 2.4486599,0.374706 3.2440739,1.124085 0.801963,0.742826 1.202952,1.649981 1.202967,2.721469 -1.5e-5,0.591631 -0.13477,1.150386 -0.404275,1.676267 -0.203794,0.394422 -0.545619,0.78555 -1.025481,1.173387 -0.473309,0.381273 -0.959755,0.670511 -1.459341,0.867714 -0.493029,0.190639 -1.1471002,0.285956 -1.9622195,0.285952 l -1.9129153,0 m 0,-2.021381 1.8734763,0 c 0.880851,6e-6 1.5776535,-0.197201 2.0904015,-0.591624 0.519306,-0.400982 0.778961,-0.880854 0.778971,-1.439617 -10e-6,-0.473291 -0.210361,-0.887427 -0.631065,-1.24241 C 10.401426,51.04983 9.806518,50.872343 9.0308429,50.872333 l -2.3270557,0 0,3.806112"
           style="font-size:40px;font-style:normal;font-variant:normal;font-weight:bold;font-stretch:normal;fill:#ffffff;fill-opacity:1;stroke:none;font-family:Courier New;-inkscape-font-specification:Courier New Bold"
           id="path3774"
           inkscape:connector-curvature="0" />
        <path
           d="m 25.23147,56.492758 c -1.1e-5,0.775689 -0.216941,1.528365 -0.650785,2.258031 -0.427297,0.723097 -1.068222,1.301573 -1.92278,1.73543 -0.848001,0.427283 -1.735435,0.640925 -2.662308,0.640925 -0.920305,0 -1.801167,-0.210355 -2.642583,-0.631065 -0.841423,-0.427283 -1.482348,-1.005759 -1.922776,-1.735429 -0.440433,-0.729667 -0.660649,-1.492203 -0.660649,-2.287612 0,-0.808547 0.223503,-1.600665 0.670509,-2.376355 0.447001,-0.782251 1.087926,-1.396881 1.922775,-1.843894 0.841417,-0.446996 1.718992,-0.670498 2.632724,-0.670507 0.9203,9e-6 1.804448,0.230085 2.652448,0.690228 0.854558,0.453586 1.49877,1.068217 1.93264,1.843893 0.433844,0.769117 0.650774,1.561235 0.650785,2.376355 m -2.021383,0.0099 c -1e-5,-0.650781 -0.233373,-1.248978 -0.700089,-1.794592 -0.637643,-0.736236 -1.475779,-1.104357 -2.514401,-1.104364 -0.913732,7e-6 -1.676271,0.292532 -2.287612,0.877575 -0.611346,0.585056 -0.917018,1.262136 -0.917013,2.031242 -5e-6,0.631068 0.308954,1.222691 0.926878,1.774871 0.617914,0.54561 1.377161,0.818414 2.277747,0.818412 0.907154,2e-6 1.669687,-0.272802 2.287611,-0.818412 0.617914,-0.55218 0.926869,-1.147089 0.926879,-1.784732"
           style="font-size:40px;font-style:normal;font-variant:normal;font-weight:bold;font-stretch:normal;fill:#50c878;fill-opacity:1;stroke:none;font-family:Courier New;-inkscape-font-specification:Courier New Bold"
           id="path3776"
           inkscape:connector-curvature="0" />
        <path
           d="m 33.100066,48.012819 0,10.767551 2.425653,0 c 0.48644,2e-6 0.831552,0.09532 1.035341,0.285952 0.210347,0.184062 0.315522,0.427285 0.315533,0.729669 -1.1e-5,0.295812 -0.105186,0.539035 -0.315533,0.729669 -0.203789,0.184061 -0.548901,0.276091 -1.035341,0.276091 l -6.872694,0 c -0.486446,0 -0.834849,-0.09203 -1.045201,-0.276091 -0.203784,-0.190634 -0.305673,-0.437143 -0.305673,-0.739529 0,-0.295811 0.101889,-0.535747 0.305673,-0.719809 0.210352,-0.190633 0.558755,-0.28595 1.045201,-0.285952 l 2.425658,0 0,-8.74617 -1.626967,0 c -0.479872,1.1e-5 -0.824989,-0.09202 -1.035341,-0.276091 -0.210357,-0.190623 -0.315533,-0.437133 -0.315533,-0.739529 0,-0.2958 0.10189,-0.535736 0.305673,-0.719809 0.210352,-0.190622 0.558756,-0.285939 1.045201,-0.285952 l 3.64835,0"
           style="font-size:40px;font-style:normal;font-variant:normal;font-weight:bold;font-stretch:normal;fill:#ffffff;fill-opacity:1;stroke:none;font-family:Courier New;-inkscape-font-specification:Courier New Bold"
           id="path3778"
           inkscape:connector-curvature="0" />
        <path
           d="m 43.068923,60.732728 -3.500438,-6.862834 c -0.328684,-0.03943 -0.57848,-0.151186 -0.749393,-0.335254 -0.170912,-0.184053 -0.256369,-0.407555 -0.256369,-0.670507 0,-0.302377 0.101889,-0.5456 0.305673,-0.729669 0.210352,-0.190625 0.558755,-0.285942 1.045201,-0.285951 l 1.843892,0 c 0.486445,9e-6 0.831557,0.09533 1.03534,0.285951 0.210352,0.184069 0.315533,0.427292 0.315533,0.729669 0,0.29582 -0.105181,0.539043 -0.315533,0.72967 -0.203783,0.184067 -0.529176,0.276098 -0.976177,0.276091 l 2.386214,4.644246 2.366495,-4.644246 c -0.433865,7e-6 -0.755971,-0.09202 -0.966317,-0.276091 -0.203789,-0.190627 -0.305678,-0.437137 -0.305673,-0.73953 -5e-6,-0.295804 0.101884,-0.53574 0.305673,-0.719809 0.210346,-0.190625 0.55875,-0.285942 1.0452,-0.285951 l 1.903056,0 c 0.479862,9e-6 0.821692,0.09533 1.025481,0.285951 0.210347,0.184069 0.315522,0.427292 0.315533,0.729669 -1.1e-5,0.269526 -0.08875,0.499601 -0.266229,0.690228 -0.177496,0.184068 -0.440443,0.289245 -0.788832,0.315533 l -4.634387,9.130725 c 0.50616,-2e-6 0.838131,0.0493 0.995902,0.147906 0.315528,0.203779 0.473294,0.493017 0.473299,0.867715 -5e-6,0.295808 -0.105186,0.535744 -0.315532,0.719808 -0.203789,0.190631 -0.548901,0.285948 -1.035341,0.285952 l -4.407597,0 c -0.486446,-4e-6 -0.834849,-0.09532 -1.045201,-0.285952 -0.203784,-0.184064 -0.305673,-0.424 -0.305673,-0.719808 0,-0.302389 0.101889,-0.548898 0.305673,-0.73953 0.210352,-0.184062 0.558755,-0.276093 1.045201,-0.276091 l 2.011518,0 1.143808,-2.267891"
           style="font-size:40px;font-style:normal;font-variant:normal;font-weight:bold;font-stretch:normal;fill:#ffffff;fill-opacity:1;stroke:none;font-family:Courier New;-inkscape-font-specification:Courier New Bold"
           id="path3780"
           inkscape:connector-curvature="0" />
        <path
           d="m 55.138046,56.699827 0,2.080543 2.041102,0 c 0.486441,2e-6 0.831553,0.09532 1.035341,0.285952 0.210347,0.184062 0.315523,0.427285 0.315533,0.729669 -1e-5,0.295812 -0.105186,0.539035 -0.315533,0.729669 -0.203788,0.184061 -0.5489,0.276091 -1.035341,0.276091 l -4.378017,0 c -0.486446,0 -0.834849,-0.09203 -1.045201,-0.276091 -0.203784,-0.190634 -0.305673,-0.437143 -0.305673,-0.739529 0,-0.295811 0.105176,-0.535747 0.315533,-0.719809 0.210357,-0.190633 0.555469,-0.28595 1.035341,-0.285952 l 0.315532,0 0,-7.908036 -0.315532,0 c -0.486446,10e-6 -0.834849,-0.09202 -1.045201,-0.276091 -0.203784,-0.190624 -0.305673,-0.437134 -0.305673,-0.73953 0,-0.302374 0.101889,-0.545597 0.305673,-0.729669 0.210352,-0.190623 0.558755,-0.28594 1.045201,-0.285952 l 4.654106,0.0099 c 1.367301,1.2e-5 2.448659,0.374706 3.244069,1.124085 0.801968,0.742826 1.202957,1.649981 1.202972,2.721469 -1.5e-5,0.591631 -0.13477,1.150386 -0.404275,1.676267 -0.203794,0.394422 -0.545619,0.78555 -1.025481,1.173387 -0.47331,0.381273 -0.959755,0.670511 -1.459341,0.867714 -0.493029,0.190639 -1.1471,0.285956 -1.96222,0.285952 l -1.912915,0 m 0,-2.021381 1.873476,0 c 0.880851,6e-6 1.577653,-0.197201 2.090402,-0.591624 0.519306,-0.400982 0.778961,-0.880854 0.778971,-1.439617 -1e-5,-0.473291 -0.210361,-0.887427 -0.631065,-1.24241 -0.414145,-0.354964 -1.009053,-0.532451 -1.784733,-0.532461 l -2.327051,0 0,3.806112"
           style="font-size:40px;font-style:normal;font-variant:normal;font-weight:bold;font-stretch:normal;fill:#ffffff;fill-opacity:1;stroke:none;font-family:Courier New;-inkscape-font-specification:Courier New Bold"
           id="path3782"
           inkscape:connector-curvature="0" />
        <path
           d="m 67.996001,51.848513 0,1.26213 c 0.847985,-0.611336 1.515208,-1.018898 2.001658,-1.222688 0.493013,-0.203773 0.953166,-0.305664 1.380458,-0.305673 0.657348,9e-6 1.294986,0.243232 1.912915,0.729669 0.420699,0.328688 0.631055,0.663941 0.631065,1.005761 -10e-6,0.289245 -0.101899,0.535755 -0.305672,0.739529 -0.197216,0.197215 -0.437152,0.295819 -0.719809,0.295812 -0.249806,7e-6 -0.512748,-0.124892 -0.788831,-0.374695 -0.276099,-0.24979 -0.522608,-0.374688 -0.739528,-0.374695 -0.282677,7e-6 -0.706672,0.177494 -1.27199,0.532462 -0.558766,0.35498 -1.258854,0.887441 -2.100266,1.597383 l 0,3.046862 2.879233,0 c 0.48644,2e-6 0.831552,0.09532 1.035345,0.285952 0.210342,0.184062 0.315523,0.427285 0.315533,0.729669 -1e-5,0.295812 -0.105191,0.539035 -0.315533,0.729669 -0.203793,0.184061 -0.548905,0.276091 -1.035345,0.276091 l -6.103583,0 c -0.486445,0 -0.834849,-0.09203 -1.0452,-0.276091 -0.203784,-0.190634 -0.305673,-0.437143 -0.305673,-0.739529 0,-0.295811 0.101889,-0.535747 0.305673,-0.719809 0.210351,-0.190633 0.558755,-0.28595 1.0452,-0.285952 l 1.202967,0 0,-4.910476 -0.729668,0 c -0.48645,7e-6 -0.834849,-0.09202 -1.045201,-0.276091 -0.203783,-0.190627 -0.305672,-0.437137 -0.305672,-0.73953 0,-0.295804 0.101889,-0.53574 0.305672,-0.719809 0.210352,-0.190625 0.558751,-0.285942 1.045201,-0.285951 l 2.751051,0"
           style="font-size:40px;font-style:normal;font-variant:normal;font-weight:bold;font-stretch:normal;fill:#ffffff;fill-opacity:1;stroke:none;font-family:Courier New;-inkscape-font-specification:Courier New Bold"
           id="path3784"
           inkscape:connector-curvature="0" />
        <path
           d="m 85.774291,56.492758 c -1e-5,0.775689 -0.21694,1.528365 -0.650785,2.258031 -0.427292,0.723097 -1.068217,1.301573 -1.922775,1.73543 -0.848006,0.427283 -1.73544,0.640925 -2.662308,0.640925 -0.92031,0 -1.801171,-0.210355 -2.642588,-0.631065 -0.841422,-0.427283 -1.482347,-1.005759 -1.922775,-1.735429 -0.440434,-0.729667 -0.660645,-1.492203 -0.660645,-2.287612 0,-0.808547 0.223498,-1.600665 0.670504,-2.376355 0.447007,-0.782251 1.087932,-1.396881 1.92278,-1.843894 0.841412,-0.446996 1.718987,-0.670498 2.632724,-0.670507 0.920295,9e-6 1.804443,0.230085 2.652448,0.690228 0.854558,0.453586 1.49877,1.068217 1.932635,1.843893 0.433845,0.769117 0.650775,1.561235 0.650785,2.376355 m -2.021378,0.0099 c -1e-5,-0.650781 -0.233373,-1.248978 -0.700089,-1.794592 -0.637648,-0.736236 -1.475779,-1.104357 -2.514401,-1.104364 -0.913737,7e-6 -1.676271,0.292532 -2.287612,0.877575 -0.611345,0.585056 -0.917018,1.262136 -0.917018,2.031242 0,0.631068 0.308959,1.222691 0.926878,1.774871 0.617914,0.54561 1.377166,0.818414 2.277752,0.818412 0.907149,2e-6 1.669688,-0.272802 2.287611,-0.818412 0.617909,-0.55218 0.926869,-1.147089 0.926879,-1.784732"
           style="font-size:40px;font-style:normal;font-variant:normal;font-weight:bold;font-stretch:normal;fill:#ffa000;fill-opacity:1;stroke:none;font-family:Courier New;-inkscape-font-specification:Courier New Bold"
           id="path3786"
           inkscape:connector-curvature="0" />
        <path
           d="m 94.855714,52.449997 0,-0.601484 2.366494,0 c 0.486435,9e-6 0.831552,0.09533 1.035346,0.285951 0.210342,0.184069 0.315518,0.427292 0.315533,0.729669 -1.5e-5,0.29582 -0.105191,0.539043 -0.315533,0.72967 -0.203794,0.184067 -0.548911,0.276098 -1.035346,0.276091 l -0.345112,0 0,7.355854 c -10e-6,0.709947 -0.151203,1.327865 -0.453579,1.853754 -0.295818,0.532459 -0.752684,0.989323 -1.370593,1.370595 C 94.435,64.831362 93.738198,65.021996 92.962518,65.022 l -2.287612,0 c -0.486445,-4e-6 -0.834849,-0.09532 -1.0452,-0.285952 -0.203784,-0.184064 -0.305673,-0.424 -0.305673,-0.719808 0,-0.302389 0.101889,-0.548898 0.305673,-0.73953 0.210351,-0.184062 0.558755,-0.276093 1.0452,-0.276091 l 2.228453,0 c 0.617909,-2e-6 1.097781,-0.167629 1.439617,-0.50288 0.34182,-0.335255 0.512732,-0.759251 0.512738,-1.271991 l 0,-0.98604 c -0.447012,0.289239 -0.903873,0.506168 -1.370593,0.650787 -0.460158,0.144619 -0.933457,0.216928 -1.419897,0.216928 -1.373885,0 -2.524261,-0.456864 -3.45114,-1.370594 -0.926878,-0.920302 -1.390312,-2.054246 -1.390312,-3.401837 0,-1.354155 0.463434,-2.488099 1.390312,-3.401836 0.926879,-0.920294 2.077255,-1.380446 3.45114,-1.380455 0.512733,9e-6 0.999183,0.07561 1.459341,0.226789 0.466715,0.144628 0.910435,0.36813 1.331149,0.670507 m -0.0098,3.875135 c -5e-6,-0.742811 -0.276099,-1.387023 -0.828271,-1.932637 -0.545614,-0.545602 -1.202977,-0.818406 -1.972079,-0.818413 -0.769117,7e-6 -1.429761,0.272811 -1.981938,0.818413 -0.545614,0.545614 -0.818416,1.189826 -0.818416,1.932637 0,0.749394 0.272802,1.396892 0.818416,1.942498 0.552177,0.539037 1.212821,0.808554 1.981938,0.808552 0.769102,2e-6 1.426465,-0.269515 1.972079,-0.808552 0.552172,-0.545606 0.828266,-1.193104 0.828271,-1.942498"
           style="font-size:40px;font-style:normal;font-variant:normal;font-weight:bold;font-stretch:normal;fill:#ffffff;fill-opacity:1;stroke:none;font-family:Courier New;-inkscape-font-specification:Courier New Bold"
           id="path3788"
           inkscape:connector-curvature="0" />
      </g>
      <g
         id="g3763"
         inkscape:label="New Text copy"
         style="display:none">
        <flowRoot
           xml:space="preserve"
           id="flowRoot3765"
           style="font-size:40px;font-style:normal;font-variant:normal;font-weight:normal;font-stretch:normal;fill:#000000;fill-opacity:1;stroke:none;display:inline;font-family:Courier New;-inkscape-font-specification:Courier New"
           transform="matrix(0.50485221,0,0,0.50485221,-51.48043,24.675441)"><flowRegion
             id="flowRegion3767"><rect
               id="rect3769"
               width="209.52187"
               height="63.57629"
               x="105.56063"
               y="34.824306"
               style="font-style:normal;font-variant:normal;font-weight:normal;font-stretch:normal;fill:#000000;font-family:Courier New;-inkscape-font-specification:Courier New" /></flowRegion><flowPara
             id="flowPara3771"
             style="font-size:40px;font-style:normal;font-variant:normal;font-weight:bold;font-stretch:normal;fill:#000000;font-family:Courier New;-inkscape-font-specification:Courier New Bold">PolyProg</flowPara></flowRoot>      </g>
    </g>
  </g>
</svg>
