<?xml version="1.0" encoding="UTF-8" standalone="no"?>
<!-- Created with Inkscape (http://www.inkscape.org/) -->

<svg
   xmlns:dc="http://purl.org/dc/elements/1.1/"
   xmlns:cc="http://creativecommons.org/ns#"
   xmlns:rdf="http://www.w3.org/1999/02/22-rdf-syntax-ns#"
   xmlns:svg="http://www.w3.org/2000/svg"
   xmlns="http://www.w3.org/2000/svg"
   xmlns:xlink="http://www.w3.org/1999/xlink"
   xmlns:sodipodi="http://sodipodi.sourceforge.net/DTD/sodipodi-0.dtd"
   xmlns:inkscape="http://www.inkscape.org/namespaces/inkscape"
   width="1600"
   height="1200"
   id="svg2"
   version="1.1"
   inkscape:version="0.48.3.1 r9886"
   sodipodi:docname="desktop-background.svg"
   inkscape:export-filename="/home/jbw/polyprog/debianlive3/2013hc2/desktop-background.png"
   inkscape:export-xdpi="90"
   inkscape:export-ydpi="90">
  <sodipodi:namedview
     id="base"
     pagecolor="#ffffff"
     bordercolor="#666666"
     borderopacity="1.0"
     inkscape:pageopacity="0.0"
     inkscape:pageshadow="2"
     inkscape:zoom="0.28744857"
     inkscape:cx="421.35741"
     inkscape:cy="265.73949"
     inkscape:document-units="px"
     inkscape:current-layer="layer_en"
     showgrid="false"
     borderlayer="true"
     inkscape:window-width="1600"
     inkscape:window-height="841"
     inkscape:window-x="0"
     inkscape:window-y="327"
     inkscape:window-maximized="1"
     showguides="true"
     inkscape:guide-bbox="true" />
  <defs
     id="defs4">
    <clipPath
       id="clipPath4330"
       clipPathUnits="userSpaceOnUse">
      <path
         id="path4332"
         d="m 218.268,783.29 158.74,0 0,24.584 -158.74,0 0,-24.584 z"
         inkscape:connector-curvature="0" />
    </clipPath>
    <clipPath
       id="clipPath4322"
       clipPathUnits="userSpaceOnUse">
      <path
         id="path4324"
         d="m 0,841.89 595.276,0 L 595.276,0 0,0 0,841.89 z"
         inkscape:connector-curvature="0" />
    </clipPath>
    <clipPath
       id="clipPath5349"
       clipPathUnits="userSpaceOnUse">
      <path
         id="path5351"
         d="m 1.34375,4.60938 1563.79625,0 0,749.84362 -1563.79625,0 0,-749.84362 z"
         inkscape:connector-curvature="0" />
    </clipPath>
  </defs>
  <metadata
     id="metadata7">
    <rdf:RDF>
      <cc:Work
         rdf:about="">
        <dc:format>image/svg+xml</dc:format>
        <dc:type
           rdf:resource="http://purl.org/dc/dcmitype/StillImage" />
        <dc:title></dc:title>
      </cc:Work>
    </rdf:RDF>
  </metadata>
  <g
     transform="translate(0,147.63785)"
     id="layer_background"
     inkscape:groupmode="layer"
     inkscape:label="Background"
     style="display:inline">
    <image
       width="1749.3466"
       height="1236.99"
       xlink:href="file:///home/jbw/polyprog/hc2/poster/poster1/laptop_with_heidi_joey.jpg"
       id="image3761"
       x="-7.4584804"
       y="-158.36281" />
    <rect
       style="color:#000000;fill:#ffffff;fill-opacity:1;fill-rule:nonzero;stroke:none;stroke-width:0.78668475;marker:none;visibility:visible;display:inline;overflow:visible;enable-background:accumulate"
       id="rect4843-5"
       width="1232.8865"
       height="167.30194"
       x="-39.359085"
       y="931.79919"
       ry="43.945259"
       rx="43.945255" />
  </g>
  <g
     inkscape:groupmode="layer"
     id="layer_logos"
     inkscape:label="Logos"
     style="display:inline"
     transform="translate(0,147.63782)">
    <g
       transform="matrix(1.0463156,0,0,1.0463156,95.921877,532.63208)"
       id="layer1-2"
       inkscape:label="Layer 1">
      <g
         id="g4316"
         transform="matrix(1.25,0,0,-1.25,-43.476134,1432.5537)">
        <g
           id="g4318">
          <g
             clip-path="url(#clipPath4322)"
             id="g4320">
            <g
               id="g4326">
              <g
                 clip-path="url(#clipPath4330)"
                 id="g4328">
                <g
                   transform="translate(303.9495,792.2909)"
                   id="g4334">
                  <path
                     id="path4336"
                     style="fill:#000000;fill-opacity:1;fill-rule:nonzero;stroke:none"
                     d="m 0,0 c 0,-3.843 3.119,-7.052 6.984,-7.052 3.865,0 6.984,3.209 6.984,7.052 0,3.865 -3.074,7.052 -6.984,7.052 C 3.074,7.052 0,3.865 0,0 m 15.356,-0.024 c 0,-4.627 -3.796,-8.295 -8.38,-8.295 -4.584,0 -8.38,3.668 -8.38,8.295 0,4.605 3.796,8.337 8.38,8.337 4.584,0 8.38,-3.732 8.38,-8.337"
                     inkscape:connector-curvature="0" />
                </g>
                <g
                   transform="translate(329.7314,787.0257)"
                   id="g4338">
                  <path
                     id="path4340"
                     style="fill:#000000;fill-opacity:1;fill-rule:nonzero;stroke:none"
                     d="m 0,0 4.909,13.301 1.583,0 -6.525,-17.037 -6.329,17.037 1.55,0 L 0,0 z"
                     inkscape:connector-curvature="0" />
                </g>
                <g
                   transform="translate(342.5317,790.7527)"
                   id="g4342">
                  <path
                     id="path4344"
                     style="fill:#000000;fill-opacity:1;fill-rule:nonzero;stroke:none"
                     d="m 0,0 c 0,-1.194 0.03,-2.559 0.777,-3.582 0.704,-0.981 1.84,-1.751 3.535,-1.756 1.85,-0.006 2.779,0.753 3.524,1.649 C 8.69,-2.665 8.7,-1.258 8.7,0 l 0,9.574 1.348,0 0,-10.064 c 0,-1.749 -0.127,-3.135 -1.407,-4.456 -1.108,-1.195 -2.708,-1.835 -4.329,-1.835 -1.514,0 -3.069,0.576 -4.157,1.642 -1.408,1.344 -1.578,2.815 -1.578,4.649 l 0,10.064 L 0,9.574 0,0"
                     inkscape:connector-curvature="0" />
                </g>
                <g
                   transform="translate(361.5903,801.0186)"
                   id="g4346">
                  <path
                     id="path4348"
                     style="fill:#000000;fill-opacity:1;fill-rule:nonzero;stroke:none"
                     d="m 0,0 6.361,-14.134 0.131,-0.292 6.335,14.43 0.516,-0.002 2.075,-16.823 -1.542,0 -1.407,12.574 -0.279,-0.61 -5.582,-12.417 -0.315,0 -5.857,13.027 -0.107,-0.781 -1.45,-11.8 -1.482,-0.006 2.19,16.838 L 0,0 z"
                     inkscape:connector-curvature="0" />
                </g>
                <g
                   transform="translate(275.7487,802.6785)"
                   id="g4350">
                  <path
                     id="path4352"
                     style="fill:#000000;fill-opacity:1;fill-rule:nonzero;stroke:none"
                     d="m 0,0 c 0,0 -0.027,-7.014 0,-10.662 0.054,-7.174 3.404,-7.069 5.228,-7.069 l 0,-0.758 -11.841,0 0,0.758 c 3.222,-0.041 5.627,1.91 5.648,6.651 0.03,6.578 0,11.782 0,11.782 0,0 -2.056,1.885 -2.712,2.273 -0.659,0.388 -1.465,0.819 -2.811,0.819 l 0,0.796 13.366,0 13.636,-12.68 0,5.263 c 0,6.459 -3.568,6.717 -5.382,6.717 l 0,0.7 11.722,0 0,-0.744 c -1.824,0 -5.443,-0.393 -5.443,-7.091 l 0,-15.73 -0.897,0 L 0,0"
                     inkscape:connector-curvature="0" />
                </g>
                <g
                   transform="translate(297.3094,806.5711)"
                   id="g4354">
                  <path
                     id="path4356"
                     style="fill:#00a983;fill-opacity:1;fill-rule:nonzero;stroke:none"
                     d="m 0,0 -3.05,0 c 0.837,-0.389 2.243,-1.705 2.272,-2.691 C -0.747,-1.914 -0.658,-0.389 0,0"
                     inkscape:connector-curvature="0" />
                </g>
                <g
                   transform="translate(297.3094,806.5711)"
                   id="g4358">
                  <path
                     id="path4360"
                     style="fill:none;stroke:#00a983;stroke-width:0.124;stroke-linecap:butt;stroke-linejoin:miter;stroke-miterlimit:4;stroke-opacity:1;stroke-dasharray:none"
                     d="m 0,0 -3.05,0 c 0.837,-0.389 2.243,-1.705 2.272,-2.691 C -0.747,-1.914 -0.658,-0.389 0,0 z"
                     inkscape:connector-curvature="0" />
                </g>
                <g
                   transform="translate(275.91,784.879)"
                   id="g4362">
                  <path
                     id="path4364"
                     style="fill:#00a983;fill-opacity:1;fill-rule:nonzero;stroke:none"
                     d="m 0,0 -3.439,0 c 0.662,0.307 2.365,2.055 2.392,2.961 C -1.017,2.183 -0.919,0.569 0,0"
                     inkscape:connector-curvature="0" />
                </g>
                <g
                   transform="translate(275.91,784.879)"
                   id="g4366">
                  <path
                     id="path4368"
                     style="fill:none;stroke:#00a983;stroke-width:0.124;stroke-linecap:butt;stroke-linejoin:miter;stroke-miterlimit:4;stroke-opacity:1;stroke-dasharray:none"
                     d="m 0,0 -3.439,0 c 0.662,0.307 2.365,2.055 2.392,2.961 C -1.017,2.183 -0.919,0.569 0,0 z"
                     inkscape:connector-curvature="0" />
                </g>
                <g
                   transform="translate(272.4754,806.4583)"
                   id="g4370">
                  <path
                     id="path4372"
                     style="fill:#00a983;fill-opacity:1;fill-rule:nonzero;stroke:none"
                     d="m 0,0 6.647,0 17.141,-15.937 0,-5.682 c 0,0 -21.143,19.566 -21.651,19.984 C 1.629,-1.216 0.239,0 0,0"
                     inkscape:connector-curvature="0" />
                </g>
                <g
                   transform="translate(272.4754,806.4583)"
                   id="g4374">
                  <path
                     id="path4376"
                     style="fill:none;stroke:#00a983;stroke-width:0.124;stroke-linecap:butt;stroke-linejoin:miter;stroke-miterlimit:4;stroke-opacity:1;stroke-dasharray:none"
                     d="m 0,0 6.647,0 17.141,-15.937 0,-5.682 c 0,0 -21.143,19.566 -21.651,19.984 C 1.629,-1.216 0.239,0 0,0 z"
                     inkscape:connector-curvature="0" />
                </g>
                <g
                   transform="translate(235.1921,791.4576)"
                   id="g4378">
                  <path
                     id="path4380"
                     style="fill:#000000;fill-opacity:1;fill-rule:nonzero;stroke:none"
                     d="m 0,0 c -1.896,3.371 -4.382,7.834 -4.382,7.834 0,0 -4.1,-7.502 -4.276,-7.832 L 0,0 z m -8.951,-0.868 c -0.885,-2.757 0.316,-5.656 4.049,-5.656 l 0.7,-0.015 0,-0.729 -12.721,0 -0.001,0.654 c 2.961,0 4.587,2.441 6.629,5.746 l 9.681,17.284 0.957,0 c 0,0 9.749,-17.583 10.586,-19.079 0.837,-1.494 1.74,-3.951 5.748,-3.951 l 0,-0.654 -18.187,0 0,0.729 1.215,0.015 c 3.265,-0.027 3.071,1.468 2.373,2.875 -0.201,0.404 -0.849,1.388 -1.633,2.782 l -9.396,-0.001"
                     inkscape:connector-curvature="0" />
                </g>
                <g
                   transform="translate(221.2309,784.9167)"
                   id="g4382">
                  <path
                     id="path4384"
                     style="fill:#00a983;fill-opacity:1;fill-rule:nonzero;stroke:none"
                     d="M 0,0 3.753,0 C 3.573,0.21 2.811,1.181 2.975,2.811 2.527,2.108 0.628,0.21 0,0"
                     inkscape:connector-curvature="0" />
                </g>
                <g
                   transform="translate(221.2309,784.9167)"
                   id="g4386">
                  <path
                     id="path4388"
                     style="fill:none;stroke:#00a983;stroke-width:0.124;stroke-linecap:butt;stroke-linejoin:miter;stroke-miterlimit:4;stroke-opacity:1;stroke-dasharray:none"
                     d="M 0,0 3.753,0 C 3.573,0.21 2.811,1.181 2.975,2.811 2.527,2.108 0.628,0.21 0,0 z"
                     inkscape:connector-curvature="0" />
                </g>
                <g
                   transform="translate(237.3296,789.5431)"
                   id="g4390">
                  <path
                     id="path4392"
                     style="fill:#00a983;fill-opacity:1;fill-rule:nonzero;stroke:none"
                     d="m 0,0 -5.951,10.615 2.542,4.666 11.113,-19.907 -7.207,0 C 1.484,-4.088 1.743,-2.751 0,0"
                     inkscape:connector-curvature="0" />
                </g>
                <g
                   transform="translate(237.3296,789.5431)"
                   id="g4394">
                  <path
                     id="path4396"
                     style="fill:none;stroke:#00a983;stroke-width:0.124;stroke-linecap:butt;stroke-linejoin:miter;stroke-miterlimit:4;stroke-opacity:1;stroke-dasharray:none"
                     d="m 0,0 -5.951,10.615 2.542,4.666 11.113,-19.907 -7.207,0 C 1.484,-4.088 1.743,-2.751 0,0 z"
                     inkscape:connector-curvature="0" />
                </g>
                <g
                   transform="translate(257.443,785.5419)"
                   id="g4398">
                  <path
                     id="path4400"
                     style="fill:#000000;fill-opacity:1;fill-rule:nonzero;stroke:none"
                     d="m 0,0 c 2.079,0 3.82,0.294 5.38,1.763 1.401,1.311 2.124,3.096 2.124,4.995 0,1.944 -0.746,3.82 -2.215,5.108 C 3.73,13.245 2.012,13.516 0,13.516 l -1.378,0 L -1.378,0 0,0 z m -2.895,14.785 2.954,0 c 2.41,0 4.371,-0.32 6.269,-1.941 C 8.162,11.267 8.994,9.113 8.994,6.725 8.994,4.379 8.141,2.311 6.371,0.733 4.452,-0.973 2.532,-1.293 0.016,-1.357 l -2.911,0 0,16.142"
                     inkscape:connector-curvature="0" />
                </g>
              </g>
            </g>
          </g>
        </g>
      </g>
    </g>
    <g
       transform="matrix(0.34540946,0,0,-0.34540946,693.67318,1039.954)"
       inkscape:label="ink_ext_XXXXXX"
       id="g5003">
      <g
         transform="scale(0.1,0.1)"
         id="g5005">
        <path
           id="path5007"
           style="fill:#b2b2b2;fill-opacity:1;fill-rule:nonzero;stroke:none"
           d="m 69.1406,2696.37 c 38.1834,0 69.1214,30.95 69.1214,69.14 0,38.2 -30.938,69.14 -69.1214,69.14 C 30.9961,2834.65 0,2803.71 0,2765.51 c 0,-38.19 30.9961,-69.14 69.1406,-69.14"
           inkscape:connector-curvature="0" />
        <path
           id="path5009"
           style="fill:#b2b2b2;fill-opacity:1;fill-rule:nonzero;stroke:none"
           d="m 483.965,2696.37 c 38.183,0 69.14,30.95 69.14,69.14 0,38.2 -30.957,69.14 -69.14,69.14 -38.184,0 -69.141,-30.94 -69.141,-69.14 0,-38.19 30.957,-69.14 69.141,-69.14"
           inkscape:connector-curvature="0" />
        <path
           id="path5011"
           style="fill:#b2b2b2;fill-opacity:1;fill-rule:nonzero;stroke:none"
           d="m 483.965,2696.37 c 38.183,0 69.14,30.95 69.14,69.14 0,38.2 -30.957,69.14 -69.14,69.14 -38.184,0 -69.141,-30.94 -69.141,-69.14 0,-38.19 30.957,-69.14 69.141,-69.14"
           inkscape:connector-curvature="0" />
        <path
           id="path5013"
           style="fill:#b2b2b2;fill-opacity:1;fill-rule:nonzero;stroke:none"
           d="m 691.387,2696.37 c 38.183,0 69.121,30.95 69.121,69.14 0,38.2 -30.938,69.14 -69.121,69.14 -38.203,0 -69.141,-30.94 -69.141,-69.14 0,-38.19 30.938,-69.14 69.141,-69.14"
           inkscape:connector-curvature="0" />
        <path
           id="path5015"
           style="fill:#b2b2b2;fill-opacity:1;fill-rule:nonzero;stroke:none"
           d="m 898.789,2696.37 c 38.203,0 69.141,30.95 69.141,69.14 0,38.2 -30.938,69.14 -69.141,69.14 -38.184,0 -69.141,-30.94 -69.141,-69.14 0,-38.19 30.957,-69.14 69.141,-69.14"
           inkscape:connector-curvature="0" />
        <path
           id="path5017"
           style="fill:#b2b2b2;fill-opacity:1;fill-rule:nonzero;stroke:none"
           d="m 1106.21,2696.37 c 38.15,0 69.12,30.95 69.12,69.14 0,38.2 -30.97,69.14 -69.12,69.14 -38.22,0 -69.14,-30.94 -69.14,-69.14 0,-38.19 30.92,-69.14 69.14,-69.14"
           inkscape:connector-curvature="0" />
        <path
           id="path5019"
           style="fill:#b2b2b2;fill-opacity:1;fill-rule:nonzero;stroke:none"
           d="m 1313.63,2696.37 c 38.13,0 69.12,30.95 69.12,69.14 0,38.2 -30.99,69.14 -69.12,69.14 -38.22,0 -69.14,-30.94 -69.14,-69.14 0,-38.19 30.92,-69.14 69.14,-69.14"
           inkscape:connector-curvature="0" />
        <path
           id="path5021"
           style="fill:#b2b2b2;fill-opacity:1;fill-rule:nonzero;stroke:none"
           d="m 1521.04,2696.37 c 38.16,0 69.1,30.95 69.1,69.14 0,38.2 -30.94,69.14 -69.1,69.14 -38.21,0 -69.15,-30.94 -69.15,-69.14 0,-38.19 30.94,-69.14 69.15,-69.14"
           inkscape:connector-curvature="0" />
        <path
           id="path5023"
           style="fill:#b2b2b2;fill-opacity:1;fill-rule:nonzero;stroke:none"
           d="m 1728.42,2696.37 c 38.16,0 69.14,30.95 69.14,69.14 0,38.2 -30.98,69.14 -69.14,69.14 -38.13,0 -69.16,-30.94 -69.16,-69.14 0,-38.19 31.03,-69.14 69.16,-69.14"
           inkscape:connector-curvature="0" />
        <path
           id="path5025"
           style="fill:#b2b2b2;fill-opacity:1;fill-rule:nonzero;stroke:none"
           d="m 1935.8,2696.37 c 38.2,0 69.18,30.95 69.18,69.14 0,38.2 -30.98,69.14 -69.18,69.14 -38.18,0 -69.12,-30.94 -69.12,-69.14 0,-38.19 30.94,-69.14 69.12,-69.14"
           inkscape:connector-curvature="0" />
        <path
           id="path5027"
           style="fill:#b2b2b2;fill-opacity:1;fill-rule:nonzero;stroke:none"
           d="m 2143.24,2696.37 c 38.19,0 69.12,30.95 69.12,69.14 0,38.2 -30.93,69.14 -69.12,69.14 -38.18,0 -69.12,-30.94 -69.12,-69.14 0,-38.19 30.94,-69.14 69.12,-69.14"
           inkscape:connector-curvature="0" />
        <path
           id="path5029"
           style="fill:#b2b2b2;fill-opacity:1;fill-rule:nonzero;stroke:none"
           d="m 2350.66,2696.37 c 38.19,0 69.13,30.95 69.13,69.14 0,38.2 -30.94,69.14 -69.13,69.14 -38.18,0 -69.16,-30.94 -69.16,-69.14 0,-38.19 30.98,-69.14 69.16,-69.14"
           inkscape:connector-curvature="0" />
        <path
           id="path5031"
           style="fill:#b2b2b2;fill-opacity:1;fill-rule:nonzero;stroke:none"
           d="m 2558.09,2696.37 c 38.18,0 69.12,30.95 69.12,69.14 0,38.2 -30.94,69.14 -69.12,69.14 -38.21,0 -69.22,-30.94 -69.22,-69.14 0,-38.19 31.01,-69.14 69.22,-69.14"
           inkscape:connector-curvature="0" />
        <path
           id="path5033"
           style="fill:#b2b2b2;fill-opacity:1;fill-rule:nonzero;stroke:none"
           d="m 2765.41,2696.37 c 38.18,0 69.24,30.95 69.24,69.14 0,38.2 -31.06,69.14 -69.24,69.14 -38.18,0 -69.1,-30.94 -69.1,-69.14 0,-38.19 30.92,-69.14 69.1,-69.14"
           inkscape:connector-curvature="0" />
        <path
           id="path5035"
           style="fill:#b2b2b2;fill-opacity:1;fill-rule:nonzero;stroke:none"
           d="m 276.562,2696.37 c 38.184,0 69.122,30.95 69.122,69.14 0,38.2 -30.938,69.14 -69.122,69.14 -38.203,0 -69.14,-30.94 -69.14,-69.14 0,-38.19 30.937,-69.14 69.14,-69.14"
           inkscape:connector-curvature="0" />
        <path
           id="path5037"
           style="fill:#b2b2b2;fill-opacity:1;fill-rule:nonzero;stroke:none"
           d="m 69.1406,0 c 38.1834,0 69.1214,31.0352 69.1214,69.2188 0,38.1442 -30.938,69.0822 -69.1214,69.0822 C 30.9961,138.301 0,107.363 0,69.2188 0,31.0352 30.9961,0 69.1406,0"
           inkscape:connector-curvature="0" />
        <path
           id="path5039"
           style="fill:#b2b2b2;fill-opacity:1;fill-rule:nonzero;stroke:none"
           d="m 483.965,0 c 38.183,0 69.14,31.0352 69.14,69.2188 0,38.1442 -30.957,69.0822 -69.14,69.0822 -38.184,0 -69.141,-30.938 -69.141,-69.0822 C 414.824,31.0352 445.781,0 483.965,0"
           inkscape:connector-curvature="0" />
        <path
           id="path5041"
           style="fill:#b2b2b2;fill-opacity:1;fill-rule:nonzero;stroke:none"
           d="m 483.965,0 c 38.183,0 69.14,31.0352 69.14,69.2188 0,38.1442 -30.957,69.0822 -69.14,69.0822 -38.184,0 -69.141,-30.938 -69.141,-69.0822 C 414.824,31.0352 445.781,0 483.965,0"
           inkscape:connector-curvature="0" />
        <path
           id="path5043"
           style="fill:#b2b2b2;fill-opacity:1;fill-rule:nonzero;stroke:none"
           d="m 691.387,0 c 38.183,0 69.121,31.0352 69.121,69.2188 0,38.1442 -30.938,69.0822 -69.121,69.0822 -38.203,0 -69.141,-30.938 -69.141,-69.0822 C 622.246,31.0352 653.184,0 691.387,0"
           inkscape:connector-curvature="0" />
        <path
           id="path5045"
           style="fill:#b2b2b2;fill-opacity:1;fill-rule:nonzero;stroke:none"
           d="m 898.789,0 c 38.203,0 69.141,31.0352 69.141,69.2188 0,38.1442 -30.938,69.0822 -69.141,69.0822 -38.184,0 -69.141,-30.938 -69.141,-69.0822 C 829.648,31.0352 860.605,0 898.789,0"
           inkscape:connector-curvature="0" />
        <path
           id="path5047"
           style="fill:#b2b2b2;fill-opacity:1;fill-rule:nonzero;stroke:none"
           d="m 1106.21,0 c 38.15,0 69.12,31.0352 69.12,69.2188 0,38.1442 -30.97,69.0822 -69.12,69.0822 -38.22,0 -69.14,-30.938 -69.14,-69.0822 C 1037.07,31.0352 1067.99,0 1106.21,0"
           inkscape:connector-curvature="0" />
        <path
           id="path5049"
           style="fill:#b2b2b2;fill-opacity:1;fill-rule:nonzero;stroke:none"
           d="m 1313.63,0 c 38.13,0 69.12,31.0352 69.12,69.2188 0,38.1442 -30.99,69.0822 -69.12,69.0822 -38.22,0 -69.14,-30.938 -69.14,-69.0822 C 1244.49,31.0352 1275.41,0 1313.63,0"
           inkscape:connector-curvature="0" />
        <path
           id="path5051"
           style="fill:#b2b2b2;fill-opacity:1;fill-rule:nonzero;stroke:none"
           d="m 1521.04,0 c 38.16,0 69.1,31.0352 69.1,69.2188 0,38.1442 -30.94,69.0822 -69.1,69.0822 -38.23,0 -69.15,-30.938 -69.15,-69.0822 C 1451.89,31.0352 1482.81,0 1521.04,0"
           inkscape:connector-curvature="0" />
        <path
           id="path5053"
           style="fill:#b2b2b2;fill-opacity:1;fill-rule:nonzero;stroke:none"
           d="m 1728.42,0 c 38.16,0 69.14,31.0352 69.14,69.2188 0,38.1442 -30.98,69.0822 -69.14,69.0822 -38.13,0 -69.16,-30.938 -69.16,-69.0822 C 1659.26,31.0352 1690.29,0 1728.42,0"
           inkscape:connector-curvature="0" />
        <path
           id="path5055"
           style="fill:#b2b2b2;fill-opacity:1;fill-rule:nonzero;stroke:none"
           d="m 1935.8,0 c 38.2,0 69.18,31.0352 69.18,69.2188 0,38.1442 -30.98,69.0822 -69.18,69.0822 -38.18,0 -69.12,-30.938 -69.12,-69.0822 C 1866.68,31.0352 1897.62,0 1935.8,0"
           inkscape:connector-curvature="0" />
        <path
           id="path5057"
           style="fill:#b2b2b2;fill-opacity:1;fill-rule:nonzero;stroke:none"
           d="m 2143.24,0 c 38.19,0 69.12,31.0352 69.12,69.2188 0,38.1442 -30.93,69.0822 -69.12,69.0822 -38.18,0 -69.12,-30.938 -69.12,-69.0822 C 2074.12,31.0352 2105.06,0 2143.24,0"
           inkscape:connector-curvature="0" />
        <path
           id="path5059"
           style="fill:#b2b2b2;fill-opacity:1;fill-rule:nonzero;stroke:none"
           d="m 2350.66,0 c 38.19,0 69.13,31.0352 69.13,69.2188 0,38.1442 -30.94,69.0822 -69.13,69.0822 -38.18,0 -69.16,-30.938 -69.16,-69.0822 C 2281.5,31.0352 2312.48,0 2350.66,0"
           inkscape:connector-curvature="0" />
        <path
           id="path5061"
           style="fill:#b2b2b2;fill-opacity:1;fill-rule:nonzero;stroke:none"
           d="m 2558.09,0 c 38.18,0 69.12,31.0352 69.12,69.2188 0,38.1442 -30.94,69.0822 -69.12,69.0822 -38.21,0 -69.22,-30.938 -69.22,-69.0822 C 2488.87,31.0352 2519.88,0 2558.09,0"
           inkscape:connector-curvature="0" />
        <path
           id="path5063"
           style="fill:#b2b2b2;fill-opacity:1;fill-rule:nonzero;stroke:none"
           d="m 2765.41,0 c 38.18,0 69.24,31.0352 69.24,69.2188 0,38.1442 -31.06,69.0822 -69.24,69.0822 -38.18,0 -69.1,-30.938 -69.1,-69.0822 C 2696.31,31.0352 2727.23,0 2765.41,0"
           inkscape:connector-curvature="0" />
        <path
           id="path5065"
           style="fill:#b2b2b2;fill-opacity:1;fill-rule:nonzero;stroke:none"
           d="m 276.562,0 c 38.184,0 69.122,31.0352 69.122,69.2188 0,38.1442 -30.938,69.0822 -69.122,69.0822 -38.203,0 -69.14,-30.938 -69.14,-69.0822 C 207.422,31.0352 238.359,0 276.562,0"
           inkscape:connector-curvature="0" />
        <path
           id="path5067"
           style="fill:#b2b2b2;fill-opacity:1;fill-rule:nonzero;stroke:none"
           d="m 138.262,483.984 c 0,38.184 -30.938,69.121 -69.1214,69.121 C 30.9961,553.105 0,522.168 0,483.984 c 0,-38.183 30.9961,-69.121 69.1406,-69.121 38.1834,0 69.1214,30.938 69.1214,69.121"
           inkscape:connector-curvature="0" />
        <path
           id="path5069"
           style="fill:#b2b2b2;fill-opacity:1;fill-rule:nonzero;stroke:none"
           d="m 138.262,483.984 c 0,38.184 -30.938,69.121 -69.1214,69.121 C 30.9961,553.105 0,522.168 0,483.984 c 0,-38.183 30.9961,-69.121 69.1406,-69.121 38.1834,0 69.1214,30.938 69.1214,69.121"
           inkscape:connector-curvature="0" />
        <path
           id="path5071"
           style="fill:#b2b2b2;fill-opacity:1;fill-rule:nonzero;stroke:none"
           d="m 138.262,691.406 c 0,38.184 -30.938,69.121 -69.1214,69.121 C 30.9961,760.527 0,729.59 0,691.406 c 0,-38.183 30.9961,-69.218 69.1406,-69.218 38.1834,0 69.1214,31.035 69.1214,69.218"
           inkscape:connector-curvature="0" />
        <path
           id="path5073"
           style="fill:#b2b2b2;fill-opacity:1;fill-rule:nonzero;stroke:none"
           d="m 138.262,898.75 c 0,38.184 -30.938,69.219 -69.1214,69.219 C 30.9961,967.969 0,936.934 0,898.75 c 0,-38.086 30.9961,-69.121 69.1406,-69.121 38.1834,0 69.1214,31.035 69.1214,69.121"
           inkscape:connector-curvature="0" />
        <path
           id="path5075"
           style="fill:#b2b2b2;fill-opacity:1;fill-rule:nonzero;stroke:none"
           d="m 138.262,1106.17 c 0,38.22 -30.938,69.12 -69.1214,69.12 C 30.9961,1175.29 0,1144.39 0,1106.17 c 0,-38.18 30.9961,-69.06 69.1406,-69.06 38.1834,0 69.1214,30.88 69.1214,69.06"
           inkscape:connector-curvature="0" />
        <path
           id="path5077"
           style="fill:#b2b2b2;fill-opacity:1;fill-rule:nonzero;stroke:none"
           d="m 138.262,1313.61 c 0,38.23 -30.938,69.14 -69.1214,69.14 C 30.9961,1382.75 0,1351.84 0,1313.61 c 0,-38.16 30.9961,-69.08 69.1406,-69.08 38.1834,0 69.1214,30.92 69.1214,69.08"
           inkscape:connector-curvature="0" />
        <path
           id="path5079"
           style="fill:#b2b2b2;fill-opacity:1;fill-rule:nonzero;stroke:none"
           d="m 138.262,1521.04 c 0,38.22 -30.938,69.14 -69.1214,69.14 C 30.9961,1590.18 0,1559.26 0,1521.04 c 0,-38.17 30.9961,-69.16 69.1406,-69.16 38.1834,0 69.1214,30.99 69.1214,69.16"
           inkscape:connector-curvature="0" />
        <path
           id="path5081"
           style="fill:#b2b2b2;fill-opacity:1;fill-rule:nonzero;stroke:none"
           d="m 138.262,1728.44 c 0,38.18 -30.938,69.14 -69.1214,69.14 C 30.9961,1797.58 0,1766.62 0,1728.44 c 0,-38.19 30.9961,-69.12 69.1406,-69.12 38.1834,0 69.1214,30.93 69.1214,69.12"
           inkscape:connector-curvature="0" />
        <path
           id="path5083"
           style="fill:#b2b2b2;fill-opacity:1;fill-rule:nonzero;stroke:none"
           d="m 138.262,1935.86 c 0,38.18 -30.938,69.16 -69.1214,69.16 C 30.9961,2005.02 0,1974.04 0,1935.86 c 0,-38.18 30.9961,-69.08 69.1406,-69.08 38.1834,0 69.1214,30.9 69.1214,69.08"
           inkscape:connector-curvature="0" />
        <path
           id="path5085"
           style="fill:#b2b2b2;fill-opacity:1;fill-rule:nonzero;stroke:none"
           d="m 138.262,2143.26 c 0,38.19 -30.938,69.14 -69.1214,69.14 C 30.9961,2212.4 0,2181.45 0,2143.26 c 0,-38.16 30.9961,-69.14 69.1406,-69.14 38.1834,0 69.1214,30.98 69.1214,69.14"
           inkscape:connector-curvature="0" />
        <path
           id="path5087"
           style="fill:#b2b2b2;fill-opacity:1;fill-rule:nonzero;stroke:none"
           d="m 138.262,2350.68 c 0,38.19 -30.938,69.14 -69.1214,69.14 C 30.9961,2419.82 0,2388.87 0,2350.68 c 0,-38.16 30.9961,-69.14 69.1406,-69.14 38.1834,0 69.1214,30.98 69.1214,69.14"
           inkscape:connector-curvature="0" />
        <path
           id="path5089"
           style="fill:#b2b2b2;fill-opacity:1;fill-rule:nonzero;stroke:none"
           d="m 138.262,2558.09 c 0,38.2 -30.938,69.14 -69.1214,69.14 C 30.9961,2627.23 0,2596.29 0,2558.09 c 0,-38.15 30.9961,-69.13 69.1406,-69.13 38.1834,0 69.1214,30.98 69.1214,69.13"
           inkscape:connector-curvature="0" />
        <path
           id="path5091"
           style="fill:#b2b2b2;fill-opacity:1;fill-rule:nonzero;stroke:none"
           d="m 138.262,276.543 c 0,38.184 -30.938,69.219 -69.1214,69.219 C 30.9961,345.762 0,314.727 0,276.543 0,238.34 30.9961,207.422 69.1406,207.422 c 38.1834,0 69.1214,30.918 69.1214,69.121"
           inkscape:connector-curvature="0" />
        <path
           id="path5093"
           style="fill:#b2b2b2;fill-opacity:1;fill-rule:nonzero;stroke:none"
           d="m 2834.65,483.984 c 0,38.184 -31.06,69.121 -69.24,69.121 -38.18,0 -69.1,-30.937 -69.1,-69.121 0,-38.183 30.92,-69.121 69.1,-69.121 38.18,0 69.24,30.938 69.24,69.121"
           inkscape:connector-curvature="0" />
        <path
           id="path5095"
           style="fill:#b2b2b2;fill-opacity:1;fill-rule:nonzero;stroke:none"
           d="m 2834.65,483.984 c 0,38.184 -31.06,69.121 -69.24,69.121 -38.18,0 -69.1,-30.937 -69.1,-69.121 0,-38.183 30.92,-69.121 69.1,-69.121 38.18,0 69.24,30.938 69.24,69.121"
           inkscape:connector-curvature="0" />
        <path
           id="path5097"
           style="fill:#b2b2b2;fill-opacity:1;fill-rule:nonzero;stroke:none"
           d="m 2834.65,691.406 c 0,38.184 -31.06,69.121 -69.24,69.121 -38.18,0 -69.1,-30.937 -69.1,-69.121 0,-38.183 30.92,-69.218 69.1,-69.218 38.18,0 69.24,31.035 69.24,69.218"
           inkscape:connector-curvature="0" />
        <path
           id="path5099"
           style="fill:#b2b2b2;fill-opacity:1;fill-rule:nonzero;stroke:none"
           d="m 2834.65,898.75 c 0,38.184 -31.06,69.219 -69.24,69.219 -38.18,0 -69.1,-31.035 -69.1,-69.219 0,-38.086 30.92,-69.121 69.1,-69.121 38.18,0 69.24,31.035 69.24,69.121"
           inkscape:connector-curvature="0" />
        <path
           id="path5101"
           style="fill:#b2b2b2;fill-opacity:1;fill-rule:nonzero;stroke:none"
           d="m 2834.65,1106.17 c 0,38.22 -31.06,69.12 -69.24,69.12 -38.18,0 -69.1,-30.9 -69.1,-69.12 0,-38.18 30.92,-69.06 69.1,-69.06 38.18,0 69.24,30.88 69.24,69.06"
           inkscape:connector-curvature="0" />
        <path
           id="path5103"
           style="fill:#b2b2b2;fill-opacity:1;fill-rule:nonzero;stroke:none"
           d="m 2834.65,1313.61 c 0,38.23 -31.06,69.14 -69.24,69.14 -38.18,0 -69.1,-30.91 -69.1,-69.14 0,-38.16 30.92,-69.08 69.1,-69.08 38.18,0 69.24,30.92 69.24,69.08"
           inkscape:connector-curvature="0" />
        <path
           id="path5105"
           style="fill:#b2b2b2;fill-opacity:1;fill-rule:nonzero;stroke:none"
           d="m 2834.65,1521.04 c 0,38.22 -31.06,69.14 -69.24,69.14 -38.18,0 -69.1,-30.92 -69.1,-69.14 0,-38.17 30.92,-69.16 69.1,-69.16 38.18,0 69.24,30.99 69.24,69.16"
           inkscape:connector-curvature="0" />
        <path
           id="path5107"
           style="fill:#b2b2b2;fill-opacity:1;fill-rule:nonzero;stroke:none"
           d="m 2834.65,1728.44 c 0,38.18 -31.06,69.14 -69.24,69.14 -38.18,0 -69.1,-30.96 -69.1,-69.14 0,-38.19 30.92,-69.12 69.1,-69.12 38.18,0 69.24,30.93 69.24,69.12"
           inkscape:connector-curvature="0" />
        <path
           id="path5109"
           style="fill:#b2b2b2;fill-opacity:1;fill-rule:nonzero;stroke:none"
           d="m 2834.65,1935.86 c 0,38.18 -31.06,69.16 -69.24,69.16 -38.18,0 -69.1,-30.98 -69.1,-69.16 0,-38.18 30.92,-69.08 69.1,-69.08 38.18,0 69.24,30.9 69.24,69.08"
           inkscape:connector-curvature="0" />
        <path
           id="path5111"
           style="fill:#b2b2b2;fill-opacity:1;fill-rule:nonzero;stroke:none"
           d="m 2834.65,2143.26 c 0,38.19 -31.06,69.14 -69.24,69.14 -38.18,0 -69.1,-30.95 -69.1,-69.14 0,-38.16 30.92,-69.14 69.1,-69.14 38.18,0 69.24,30.98 69.24,69.14"
           inkscape:connector-curvature="0" />
        <path
           id="path5113"
           style="fill:#b2b2b2;fill-opacity:1;fill-rule:nonzero;stroke:none"
           d="m 2834.65,2350.68 c 0,38.19 -31.06,69.14 -69.24,69.14 -38.18,0 -69.1,-30.95 -69.1,-69.14 0,-38.16 30.92,-69.14 69.1,-69.14 38.18,0 69.24,30.98 69.24,69.14"
           inkscape:connector-curvature="0" />
        <path
           id="path5115"
           style="fill:#b2b2b2;fill-opacity:1;fill-rule:nonzero;stroke:none"
           d="m 2834.65,2558.09 c 0,38.2 -31.06,69.14 -69.24,69.14 -38.18,0 -69.1,-30.94 -69.1,-69.14 0,-38.15 30.92,-69.13 69.1,-69.13 38.18,0 69.24,30.98 69.24,69.13"
           inkscape:connector-curvature="0" />
        <path
           id="path5117"
           style="fill:#b2b2b2;fill-opacity:1;fill-rule:nonzero;stroke:none"
           d="m 2834.65,276.543 c 0,38.184 -31.06,69.219 -69.24,69.219 -38.18,0 -69.1,-31.035 -69.1,-69.219 0,-38.203 30.92,-69.121 69.1,-69.121 38.18,0 69.24,30.918 69.24,69.121"
           inkscape:connector-curvature="0" />
        <path
           id="path5119"
           style="fill:#000000;fill-opacity:1;fill-rule:nonzero;stroke:none"
           d="m 482.09,2006.19 c 73.203,0 131.836,-48.83 131.836,-124.47 0,-75.67 -58.633,-124.55 -131.836,-124.55 -73.242,0 -131.817,48.88 -131.817,124.55 0,75.64 58.575,124.47 131.817,124.47 z m 0,-184.59 c 36.621,0 58.594,24.44 58.594,60.12 0,35.64 -21.973,60.06 -58.594,60.06 -36.621,0 -58.594,-24.42 -58.594,-60.06 0,-35.68 21.973,-60.12 58.594,-60.12"
           inkscape:connector-curvature="0" />
        <path
           id="path5121"
           style="fill:#000000;fill-opacity:1;fill-rule:nonzero;stroke:none"
           d="m 653.789,2000.33 67.363,0 0,-31.25 0.996,0 c 11.231,17.13 39.532,37.11 72.754,37.11 70.293,0 116.68,-50.74 116.68,-122.52 0,-65.96 -40.996,-126.5 -108.398,-126.5 -30.254,0 -58.575,8.32 -75.176,31.23 l -0.996,0 0,-136.64 -73.223,0 0,348.57 z M 779.766,1821.6 c 36.601,0 58.574,24.44 58.574,60.12 0,35.64 -21.973,60.06 -58.574,60.06 -36.641,0 -58.614,-24.42 -58.614,-60.06 0,-35.68 21.973,-60.12 58.614,-60.12"
           inkscape:connector-curvature="0" />
        <path
           id="path5123"
           style="fill:#000000;fill-opacity:1;fill-rule:nonzero;stroke:none"
           d="m 1174.12,1804.08 c -23.44,-29.76 -62.01,-46.91 -100.1,-46.91 -73.24,0 -131.832,48.88 -131.832,124.55 0,75.64 58.592,124.47 131.832,124.47 68.36,0 111.33,-48.83 111.33,-124.47 l 0,-22.93 -169.94,0 c 5.88,-27.87 26.88,-45.96 55.2,-45.96 23.9,0 40.01,12.19 52.24,28.83 l 51.27,-37.58 z m -62.01,104.51 c 0.47,24.36 -18.56,44.87 -44.92,44.87 -32.23,0 -49.83,-21.96 -51.78,-44.87 l 96.7,0"
           inkscape:connector-curvature="0" />
        <path
           id="path5125"
           style="fill:#000000;fill-opacity:1;fill-rule:nonzero;stroke:none"
           d="m 1229.69,2000.33 70.29,0 0,-32.22 1,0 c 9.76,18.53 33.67,38.08 69.33,38.08 74.2,0 87.87,-48.83 87.87,-112.3 l 0,-130.78 -73.24,0 0,116.17 c 0,27.34 -0.49,62.5 -38.06,62.5 -38.09,0 -43.97,-29.77 -43.97,-60.59 l 0,-118.08 -73.22,0 0,237.22"
           inkscape:connector-curvature="0" />
        <path
           id="path5127"
           style="fill:#000000;fill-opacity:1;fill-rule:nonzero;stroke:none"
           d="m 501.055,1515.68 c -10.743,13.17 -24.883,20.04 -42.461,20.04 -12.207,0 -26.856,-5.43 -26.856,-19.51 0,-35.17 123.535,-5.41 123.535,-95.68 0,-60.63 -58.593,-78.17 -109.375,-78.17 -33.203,0 -69.824,8.32 -93.261,32.19 l 44.453,49.4 c 13.652,-16.63 29.765,-25.96 51.738,-25.96 16.602,0 33.184,4.47 33.184,17.13 0,38.08 -123.516,5.84 -123.516,96.21 0,55.58 49.805,80.1 99.59,80.1 31.269,0 65.918,-7.89 87.891,-31.35 l -44.922,-44.4"
           inkscape:connector-curvature="0" />
        <path
           id="path5129"
           style="fill:#000000;fill-opacity:1;fill-rule:nonzero;stroke:none"
           d="m 719.688,1309.69 c -19.532,-50.33 -30.762,-78.64 -100.586,-78.64 -18.555,0 -37.11,2.88 -54.688,8.79 l 9.785,60.1 c 11.231,-4.96 21.973,-7.38 34.18,-7.38 33.183,0 38.555,14.14 48.809,40.06 l 5.371,13.69 -104.004,239.22 79.101,0 61.035,-156.7 0.997,0 52.226,156.7 75.195,0 -107.421,-275.84"
           inkscape:connector-curvature="0" />
        <path
           id="path5131"
           style="fill:#000000;fill-opacity:1;fill-rule:nonzero;stroke:none"
           d="m 973.965,1515.68 c -10.781,13.17 -24.922,20.04 -42.52,20.04 -12.207,0 -26.816,-5.43 -26.816,-19.51 0,-35.17 123.511,-5.41 123.511,-95.68 0,-60.63 -58.589,-78.17 -109.39,-78.17 -33.184,0 -69.785,8.32 -93.223,32.19 l 44.414,49.4 c 13.653,-16.63 29.766,-25.96 51.739,-25.96 16.601,0 33.222,4.47 33.222,17.13 0,38.08 -123.554,5.84 -123.554,96.21 0,55.58 49.804,80.1 99.648,80.1 31.211,0 65.899,-7.89 87.894,-31.35 l -44.925,-44.4"
           inkscape:connector-curvature="0" />
        <path
           id="path5133"
           style="fill:#000000;fill-opacity:1;fill-rule:nonzero;stroke:none"
           d="m 1227.23,1526.88 -64.46,0 0,-79.05 c 0,-25.35 2.95,-43.92 34.67,-43.92 7.81,0 23.42,0.95 29.79,6.83 l 0,-61.11 c -16.12,-5.8 -34.16,-7.27 -51.27,-7.27 -48.83,0 -86.41,20.04 -86.41,71.8 l 0,112.72 -46.89,0 0,58.65 46.89,0 0,70.31 73.22,0 0,-70.31 64.46,0 0,-58.65"
           inkscape:connector-curvature="0" />
        <path
           id="path5135"
           style="fill:#000000;fill-opacity:1;fill-rule:nonzero;stroke:none"
           d="m 1488.85,1389.28 c -23.42,-29.79 -61.99,-46.92 -100.08,-46.92 -73.24,0 -131.84,48.79 -131.84,124.55 0,75.65 58.6,124.52 131.84,124.52 68.36,0 111.33,-48.87 111.33,-124.52 l 0,-22.95 -169.89,0 c 5.81,-27.89 26.82,-45.97 55.14,-45.97 23.91,0 40.04,12.26 52.25,28.85 l 51.25,-37.56 z m -61.99,104.41 c 0.48,24.47 -18.56,44.92 -44.95,44.92 -32.22,0 -49.78,-21.89 -51.7,-44.92 l 96.65,0"
           inkscape:connector-curvature="0" />
        <path
           id="path5137"
           style="fill:#000000;fill-opacity:1;fill-rule:nonzero;stroke:none"
           d="m 1544.41,1585.53 70.32,0 0,-32.19 0.95,0 c 9.79,18.46 33.71,38.09 69.36,38.09 33.2,0 60.55,-13.7 73.22,-42.54 17.11,30.29 40.04,42.54 75.22,42.54 64.45,0 83.92,-45.45 83.92,-103.05 l 0,-140.2 -73.18,0 0,138.25 c 0,21.99 -8.3,40.45 -32.23,40.45 -33.71,0 -44.41,-23.87 -44.41,-53.13 l 0,-125.57 -73.24,0 0,125.57 c 0,17.54 0.93,53.13 -32.74,53.13 -38.03,0 -43.96,-29.75 -43.96,-60.49 l 0,-118.21 -73.23,0 0,237.35"
           inkscape:connector-curvature="0" />
        <path
           id="path5139"
           style="fill:#000000;fill-opacity:1;fill-rule:nonzero;stroke:none"
           d="m 2103.28,1515.68 c -10.8,13.17 -24.9,20.04 -42.48,20.04 -12.19,0 -26.82,-5.43 -26.82,-19.51 0,-35.17 123.46,-5.41 123.46,-95.68 0,-60.63 -58.55,-78.17 -109.37,-78.17 -33.17,0 -69.79,8.32 -93.23,32.19 l 44.48,49.4 c 13.65,-16.63 29.78,-25.96 51.73,-25.96 16.59,0 33.21,4.47 33.21,17.13 0,38.08 -123.54,5.84 -123.54,96.21 0,55.58 49.81,80.1 99.61,80.1 31.25,0 65.86,-7.89 87.89,-31.35 l -44.94,-44.4"
           inkscape:connector-curvature="0" />
      </g>
    </g>
    <image
       y="943.5827"
       x="90.918228"
       id="image5218"
       xlink:href="file:///home/jbw/polyprog/2012hc2/ext_logos/polyprog_logo.png"
       height="94.831139"
       width="94.831139" />
    <g
       transform="matrix(1.0116283,0,0,-1.0116283,941.60233,1029.3914)"
       inkscape:label="ink_ext_XXXXXX"
       id="g5341">
      <g
         transform="scale(0.1,0.1)"
         id="g5343">
        <g
           id="g5345">
          <g
             clip-path="url(#clipPath5349)"
             id="g5347">
            <path
               id="path5353"
               style="fill:#231f20;fill-opacity:1;fill-rule:nonzero;stroke:none"
               d="m 613.113,754.426 c 0,0 -57.777,-100.86 -59.953,-195.727 l 53.418,0 0,-45.777 -55.609,0 c 0,0 -4.364,-94.875 62.144,-200.617 l -53.972,0 c 0,0 -130.829,180.429 0,442.121 l 53.972,0"
               inkscape:connector-curvature="0" />
            <path
               id="path5355"
               style="fill:#ed1c24;fill-opacity:1;fill-rule:nonzero;stroke:none"
               d="m 507.719,312.441 c 0,0 -130.84,180.293 0,441.985 l -503.17212,0 0,-441.985 503.17212,0"
               inkscape:connector-curvature="0" />
            <path
               id="path5357"
               style="fill:#231f20;fill-opacity:1;fill-rule:nonzero;stroke:none"
               d="m 815.391,312.227 50.898,0 0,200.593 54.316,0 0,45.805 -53.457,0 c 2.188,94.852 59.981,195.711 59.981,195.711 l -53.945,0 C 831.68,671.371 816.504,596.562 815.137,533.082 l 0.254,-220.855"
               inkscape:connector-curvature="0" />
            <path
               id="path5359"
               style="fill:#231f20;fill-opacity:1;fill-rule:nonzero;stroke:none"
               d="m 1001.02,512.82 c 0,0 -4.399,-94.851 62.12,-200.613 l -53.98,0 c 0,0 -61.023,84.16 -58.008,220.895 l 0,221.324 49.588,0 0.28,-241.606"
               inkscape:connector-curvature="0" />
            <path
               id="path5361"
               style="fill:#ed1c24;fill-opacity:1;fill-rule:nonzero;stroke:none"
               d="m 1115.02,312.207 c -66.5,105.762 -62.15,200.613 -62.15,200.613 l -0.27,241.606 511.38,0 -0.41,-442.18 -448.55,-0.039"
               inkscape:connector-curvature="0" />
            <path
               id="path5363"
               style="fill:#231f20;fill-opacity:1;fill-rule:nonzero;stroke:none"
               d="m 646.465,312.227 50.1523,0 0,442.199 -50.1523,0 0,-442.199 z"
               inkscape:connector-curvature="0" />
            <path
               id="path5365"
               style="fill:#231f20;fill-opacity:1;fill-rule:nonzero;stroke:none"
               d="m 764.219,754.426 -53.418,0 c 0,0 83.965,-110.129 0,-221.344 l 53.418,0 c 0,0 79.101,104.551 0,221.344"
               inkscape:connector-curvature="0" />
            <path
               id="path5367"
               style="fill:#231f20;fill-opacity:1;fill-rule:nonzero;stroke:none"
               d="m 45.7305,252.441 c 0.5937,-1.074 0,-1.406 -0.4727,-1.406 -0.3476,0 -1.5234,0.215 -3.5312,0 -5.7696,-0.605 -13.9922,-3.293 -17.8868,-4.941 -0.8203,-0.332 -1.5351,-0.586 -1.7656,-0.586 -0.2422,0 -0.5898,0.254 -0.5898,0.722 0,0.34 0.2383,0.567 0.8203,0.911 4.2422,2.918 15.1953,9.55 16.0156,10.007 1.9961,1.192 2.7031,1.543 3.2969,1.543 0.3476,0 0.5898,-0.234 1.1719,-1.062 0.8203,-1.184 1.6445,-2.824 2.9414,-5.188 z m -34.125,-50.156 c 0,18.36 0,21.68 -0.2422,25.442 -0.2344,3.992 -1.1758,5.886 -5.05861,6.707 -0.95313,0.234 -2.94531,0.371 -4.00391,0.371 -0.46875,0 -0.94922,0.215 -0.94922,0.703 0,0.703 0.58985,0.957 1.89063,0.957 5.29687,0 12.71091,-0.371 13.30081,-0.371 0.8203,0 24.25,0 26.9648,0.117 2.2227,0.117 4.1133,0.371 5.043,0.598 0.5898,0.117 1.0664,0.566 1.6484,0.566 0.3594,0 0.4844,-0.449 0.4844,-1.047 0,-0.82 -0.5898,-2.234 -0.9492,-5.547 -0.1172,-1.172 -0.3477,-6.347 -0.5938,-7.761 -0.1094,-0.598 -0.3476,-1.321 -0.8203,-1.321 -0.6992,0 -0.9258,0.606 -0.9258,1.543 0,0.828 -0.1289,2.852 -0.7226,4.258 -0.8203,1.875 -1.9922,3.281 -8.3516,3.965 -2.0078,0.254 -14.8281,0.371 -16.1289,0.371 -0.4687,0 -0.707,-0.371 -0.707,-1.191 l 0,-32.442 c 0,-0.84 0.1211,-1.191 0.707,-1.191 1.5313,0 16.0078,0 18.7148,0.234 2.8282,0.234 4.4805,0.488 5.5352,1.641 0.8242,0.918 1.2891,1.504 1.7734,1.504 0.336,0 0.5782,-0.235 0.5782,-0.938 0,-0.644 -0.5782,-2.676 -0.9375,-6.582 -0.2344,-2.383 -0.461,-6.68 -0.461,-7.5 0,-0.976 0,-2.266 -0.832,-2.266 -0.5898,0 -0.832,0.469 -0.832,1.075 0,1.191 0,2.363 -0.4727,3.886 -0.4609,1.622 -1.5234,3.614 -6.1133,4.082 -3.1875,0.372 -14.832,0.606 -16.8398,0.606 -0.582,0 -0.8203,-0.352 -0.8203,-0.82 l 0,-10.372 c 0,-3.964 -0.1172,-17.636 0,-20.136 0.3476,-8.106 2.125,-9.649 13.6523,-9.649 3.0625,0 8.2422,0 11.3047,1.309 3.0625,1.289 4.4727,3.672 5.2969,8.457 0.2344,1.309 0.4687,1.777 1.0547,1.777 0.707,0 0.707,-0.937 0.707,-1.777 0,-0.918 -0.9375,-8.926 -1.5273,-11.367 -0.8243,-3.086 -1.7735,-3.086 -6.3594,-3.086 -17.7695,0 -25.6641,0.722 -29.0703,0.722 -0.5899,0 -8.00394,-0.351 -11.52738,-0.351 -1.30859,0 -1.89062,0.234 -1.89062,0.937 0,0.352 0.23438,0.723 0.94141,0.723 1.05468,0 2.47265,0.234 3.52734,0.469 2.36328,0.469 2.94145,3.027 3.41795,6.445 0.5938,4.922 0.5938,14.238 0.5938,25.527 l 0,20.723"
               inkscape:connector-curvature="0" />
            <path
               id="path5369"
               style="fill:#231f20;fill-opacity:1;fill-rule:nonzero;stroke:none"
               d="m 84.2227,158.516 c -11.4141,10.273 -14.2422,23.632 -14.2422,34.824 0,7.89 2.707,21.68 13.1836,32.168 7.0625,7.031 17.7769,12.578 35.8949,12.578 4.711,0 11.3,-0.359 17.07,-1.414 4.476,-0.813 8.246,-1.535 12.016,-1.75 1.289,-0.117 1.519,-0.606 1.519,-1.309 0,-0.957 -0.348,-2.363 -0.582,-6.59 -0.234,-3.886 -0.234,-10.343 -0.352,-12.121 -0.128,-1.777 -0.355,-2.5 -1.062,-2.5 -0.82,0 -0.949,0.84 -0.949,2.5 0,4.59 -1.883,9.414 -4.942,12.012 -4.121,3.496 -13.175,6.699 -23.547,6.699 -15.64,0 -22.9488,-4.597 -27.0581,-8.574 -8.5977,-8.242 -10.6055,-18.73 -10.6055,-30.742 0,-22.5 17.3164,-43.106 42.4996,-43.106 8.829,0 15.774,1.055 20.481,5.918 2.469,2.598 4.004,7.754 4.351,9.883 0.247,1.309 0.477,1.797 1.184,1.797 0.582,0 0.82,-0.84 0.82,-1.797 0,-0.84 -1.418,-11.054 -2.597,-15.097 -0.696,-2.188 -0.926,-2.422 -3.055,-3.36 -4.699,-1.894 -13.652,-2.734 -21.184,-2.734 -17.656,0 -29.5426,4.375 -38.8433,12.715"
               inkscape:connector-curvature="0" />
            <path
               id="path5371"
               style="fill:#231f20;fill-opacity:1;fill-rule:nonzero;stroke:none"
               d="m 175.918,195.352 c 0,25.761 14.719,38.742 34.371,38.742 18.598,0 35.785,-15.207 35.785,-43.469 0,-34.238 -21.894,-40.352 -32.488,-40.352 -21.191,0 -37.668,17.676 -37.668,45.079 z m -11.191,-3.321 c 0,-21.172 13.425,-46.23 45.671,-46.23 28.372,0 46.977,21.797 46.977,48.144 0,27.403 -19.777,44.141 -46.262,44.141 -32.48,0 -46.386,-26.973 -46.386,-46.055"
               inkscape:connector-curvature="0" />
            <path
               id="path5373"
               style="fill:#231f20;fill-opacity:1;fill-rule:nonzero;stroke:none"
               d="m 295.742,181.328 c 0,-17.285 0.469,-24.824 2.59,-26.953 1.887,-1.875 4.949,-2.715 14.125,-2.715 6.238,0 11.41,0.117 14.238,3.555 1.532,1.894 2.715,4.844 3.063,7.051 0.117,0.937 0.347,1.523 1.066,1.523 0.586,0 0.696,-0.469 0.696,-1.777 0,-1.27 -0.821,-8.34 -1.762,-11.739 -0.828,-2.714 -1.168,-3.183 -7.414,-3.183 -16.953,0 -24.723,0.722 -31.551,0.722 -1.059,0 -8,-0.351 -11.535,-0.351 -1.289,0 -1.879,0.234 -1.879,0.937 0,0.352 0.226,0.723 0.945,0.723 1.063,0 2.473,0.234 3.531,0.469 2.356,0.469 2.93,3.027 3.411,6.445 0.586,4.922 0.586,14.238 0.586,25.527 l 0,20.723 c 0,18.36 0,21.68 -0.231,25.442 -0.246,3.992 -1.183,5.886 -5.059,6.707 -0.949,0.234 -2.957,0.371 -4.007,0.371 -0.469,0 -0.946,0.215 -0.946,0.703 0,0.703 0.59,0.957 1.891,0.957 5.293,0 12.699,-0.371 13.293,-0.371 0.594,0 9.184,0.371 12.723,0.371 1.285,0 1.875,-0.254 1.875,-0.957 0,-0.488 -0.465,-0.703 -0.938,-0.703 -0.828,0 -2.48,-0.137 -3.887,-0.371 -3.418,-0.586 -4.355,-2.598 -4.589,-6.707 -0.235,-3.762 -0.235,-7.082 -0.235,-25.442 l 0,-20.957"
               inkscape:connector-curvature="0" />
            <path
               id="path5375"
               style="fill:#231f20;fill-opacity:1;fill-rule:nonzero;stroke:none"
               d="m 355.531,202.285 c 0,18.36 0,21.68 -0.234,25.442 -0.235,3.992 -1.176,5.886 -5.059,6.707 -0.941,0.234 -2.933,0.371 -4.004,0.371 -0.472,0 -0.937,0.215 -0.937,0.703 0,0.703 0.586,0.957 1.883,0.957 5.297,0 12.707,-0.371 13.293,-0.371 0.828,0 24.257,0 26.965,0.117 2.234,0.117 4.121,0.371 5.058,0.598 0.59,0.117 1.055,0.566 1.649,0.566 0.351,0 0.46,-0.449 0.46,-1.047 0,-0.82 -0.578,-2.234 -0.929,-5.547 -0.125,-1.172 -0.356,-6.347 -0.59,-7.761 -0.125,-0.598 -0.359,-1.321 -0.824,-1.321 -0.703,0 -0.938,0.606 -0.938,1.543 0,0.828 -0.117,2.852 -0.711,4.258 -0.832,1.875 -2,3.281 -8.363,3.965 -2,0.254 -14.824,0.371 -16.117,0.371 -0.473,0 -0.719,-0.371 -0.719,-1.191 l 0,-32.442 c 0,-0.84 0.129,-1.191 0.719,-1.191 1.519,0 16.012,0 18.707,0.234 2.832,0.234 4.48,0.488 5.531,1.641 0.836,0.918 1.305,1.504 1.762,1.504 0.363,0 0.594,-0.235 0.594,-0.938 0,-0.644 -0.594,-2.676 -0.926,-6.582 -0.242,-2.383 -0.477,-6.68 -0.477,-7.5 0,-0.976 0,-2.266 -0.824,-2.266 -0.594,0 -0.828,0.469 -0.828,1.075 0,1.191 0,2.363 -0.469,3.886 -0.476,1.622 -1.531,3.614 -6.125,4.082 -3.18,0.372 -14.832,0.606 -16.828,0.606 -0.59,0 -0.836,-0.352 -0.836,-0.82 l 0,-10.372 c 0,-3.964 -0.105,-17.636 0,-20.136 0.363,-8.106 2.129,-9.649 13.664,-9.649 3.067,0 8.231,0 11.293,1.309 3.074,1.289 4.477,3.672 5.305,8.457 0.242,1.309 0.472,1.777 1.062,1.777 0.7,0 0.7,-0.937 0.7,-1.777 0,-0.918 -0.938,-8.926 -1.52,-11.367 -0.824,-3.086 -1.773,-3.086 -6.371,-3.086 -17.766,0 -25.652,0.722 -29.074,0.722 -0.586,0 -7.996,-0.351 -11.524,-0.351 -1.297,0 -1.887,0.234 -1.887,0.937 0,0.352 0.243,0.723 0.942,0.723 1.058,0 2.48,0.234 3.527,0.469 2.348,0.469 2.942,3.027 3.414,6.445 0.586,4.922 0.586,14.238 0.586,25.527 l 0,20.723"
               inkscape:connector-curvature="0" />
            <path
               id="path5377"
               style="fill:#231f20;fill-opacity:1;fill-rule:nonzero;stroke:none"
               d="m 465.59,202.285 c 0,18.36 0,21.68 -0.235,25.442 -0.234,3.992 -1.179,5.886 -5.066,6.707 -0.93,0.234 -2.937,0.371 -3.988,0.371 -0.477,0 -0.953,0.215 -0.953,0.703 0,0.703 0.593,0.957 1.882,0.957 5.297,0 12.36,-0.371 13.309,-0.371 2.574,0 9.406,0.371 14.82,0.371 14.731,0 20.016,-5 21.899,-6.738 2.594,-2.461 5.887,-7.774 5.887,-13.985 0,-16.738 -12.239,-28.027 -28.957,-28.027 -0.59,0 -1.879,0 -2.469,0.137 -0.59,0 -1.297,0.214 -1.297,0.82 0,0.898 0.707,1.016 3.176,1.016 11.414,0 20.367,8.398 20.367,19.218 0,3.867 -0.352,11.739 -6.59,18.117 -6.246,6.344 -13.418,5.875 -16.129,5.875 -1.996,0 -4.004,-0.242 -5.058,-0.71 -0.711,-0.235 -0.95,-1.055 -0.95,-2.227 l 0,-48.399 c 0,-11.289 0,-20.605 0.594,-25.527 0.356,-3.418 1.055,-5.976 4.59,-6.445 1.648,-0.235 4.23,-0.469 5.301,-0.469 0.703,0 0.937,-0.371 0.937,-0.723 0,-0.586 -0.59,-0.937 -1.879,-0.937 -6.48,0 -13.89,0.351 -14.484,0.351 -0.352,0 -7.77,-0.351 -11.293,-0.351 -1.297,0 -1.891,0.234 -1.891,0.937 0,0.352 0.239,0.723 0.938,0.723 1.066,0 2.472,0.234 3.535,0.469 2.355,0.469 2.945,3.027 3.414,6.445 0.59,4.922 0.59,14.238 0.59,25.527 l 0,20.723"
               inkscape:connector-curvature="0" />
            <path
               id="path5379"
               style="fill:#231f20;fill-opacity:1;fill-rule:nonzero;stroke:none"
               d="m 538.926,195.352 c 0,25.761 14.719,38.742 34.371,38.742 18.601,0 35.781,-15.207 35.781,-43.469 0,-34.238 -21.894,-40.352 -32.484,-40.352 -21.199,0 -37.668,17.676 -37.668,45.079 z m -11.192,-3.321 c 0,-21.172 13.418,-46.23 45.668,-46.23 28.379,0 46.981,21.797 46.981,48.144 0,27.403 -19.785,44.141 -46.262,44.141 -32.484,0 -46.387,-26.973 -46.387,-46.055"
               inkscape:connector-curvature="0" />
            <path
               id="path5381"
               style="fill:#231f20;fill-opacity:1;fill-rule:nonzero;stroke:none"
               d="m 656.395,181.328 c 0,-17.285 0.468,-24.824 2.582,-26.953 1.882,-1.875 4.949,-2.715 14.128,-2.715 6.25,0 11.415,0.117 14.239,3.555 1.543,1.894 2.715,4.844 3.054,7.051 0.129,0.937 0.364,1.523 1.079,1.523 0.57,0 0.695,-0.469 0.695,-1.777 0,-1.27 -0.817,-8.34 -1.774,-11.739 -0.824,-2.714 -1.156,-3.183 -7.41,-3.183 -16.941,0 -24.718,0.722 -31.543,0.722 -1.05,0 -8,-0.351 -11.531,-0.351 -1.297,0 -1.883,0.234 -1.883,0.937 0,0.352 0.235,0.723 0.934,0.723 1.074,0 2.473,0.234 3.547,0.469 2.351,0.469 2.941,3.027 3.402,6.445 0.59,4.922 0.59,14.238 0.59,25.527 l 0,20.723 c 0,18.36 0,21.68 -0.234,25.442 -0.239,3.992 -1.172,5.886 -5.063,6.707 -0.934,0.234 -2.941,0.371 -4,0.371 -0.469,0 -0.953,0.215 -0.953,0.703 0,0.703 0.594,0.957 1.894,0.957 5.297,0 12.707,-0.371 13.297,-0.371 0.598,0 9.184,0.371 12.715,0.371 1.293,0 1.887,-0.254 1.887,-0.957 0,-0.488 -0.481,-0.703 -0.942,-0.703 -0.828,0 -2.472,-0.137 -3.894,-0.371 -3.406,-0.586 -4.348,-2.598 -4.578,-6.707 -0.238,-3.762 -0.238,-7.082 -0.238,-25.442 l 0,-20.957"
               inkscape:connector-curvature="0" />
            <path
               id="path5383"
               style="fill:#231f20;fill-opacity:1;fill-rule:nonzero;stroke:none"
               d="m 726.902,177.949 c 0,6.348 -1.172,8.926 -2.714,12.324 -0.813,1.875 -16.59,27.801 -20.704,33.918 -2.957,4.356 -5.894,7.274 -8.015,8.707 -1.758,1.196 -3.992,1.907 -5.071,1.907 -0.586,0 -1.156,0.215 -1.156,0.82 0,0.469 0.461,0.84 1.52,0.84 2.238,0 11.07,-0.371 11.652,-0.371 0.828,0 5.301,0.371 9.883,0.371 1.312,0 1.543,-0.371 1.543,-0.84 0,-0.488 -0.715,-0.605 -1.778,-1.074 -0.925,-0.457 -1.515,-1.184 -1.515,-2.11 0,-1.445 0.59,-2.832 1.515,-4.609 1.887,-3.398 19.547,-33.77 21.661,-37.207 2.234,4.961 17.183,30.723 19.539,34.629 1.543,2.473 1.992,4.473 1.992,5.996 0,1.648 -0.449,2.949 -1.875,3.301 -1.043,0.371 -1.758,0.586 -1.758,1.191 0,0.469 0.715,0.723 1.887,0.723 3.054,0 6.812,-0.371 7.762,-0.371 0.71,0 9.179,0.371 11.406,0.371 0.832,0 1.551,-0.254 1.551,-0.723 0,-0.605 -0.594,-0.937 -1.551,-0.937 -1.281,0 -3.516,-0.489 -5.41,-1.68 -2.352,-1.406 -3.641,-2.832 -6.231,-5.969 -3.879,-4.734 -20.371,-32.39 -22.488,-37.468 -1.758,-4.219 -1.758,-7.891 -1.758,-11.739 l 0,-10.137 c 0,-1.874 0,-6.855 0.352,-11.777 0.242,-3.418 1.289,-5.976 4.832,-6.445 1.64,-0.235 4.23,-0.469 5.293,-0.469 0.695,0 0.937,-0.371 0.937,-0.723 0,-0.586 -0.574,-0.937 -1.887,-0.937 -6.464,0 -13.875,0.351 -14.468,0.351 -0.598,0 -8.02,-0.351 -11.536,-0.351 -1.308,0 -1.882,0.234 -1.882,0.937 0,0.352 0.234,0.723 0.925,0.723 1.075,0 2.473,0.234 3.543,0.469 2.356,0.469 3.411,3.027 3.645,6.445 0.359,4.922 0.359,9.903 0.359,11.777 l 0,10.137"
               inkscape:connector-curvature="0" />
            <path
               id="path5385"
               style="fill:#231f20;fill-opacity:1;fill-rule:nonzero;stroke:none"
               d="m 818.242,181.562 c 0,-11.289 0,-20.605 0.567,-25.527 0.351,-3.418 1.074,-5.976 4.609,-6.445 1.66,-0.235 4.238,-0.469 5.273,-0.469 0.723,0 0.938,-0.371 0.938,-0.723 0,-0.586 -0.586,-0.937 -1.848,-0.937 -6.48,0 -13.875,0.351 -14.461,0.351 -0.605,0 -8.008,-0.351 -11.562,-0.351 -1.309,0 -1.895,0.234 -1.895,0.937 0,0.352 0.235,0.723 0.938,0.723 1.074,0 2.5,0.234 3.554,0.469 2.344,0.469 2.95,3.027 3.399,6.445 0.605,4.922 0.605,14.238 0.605,25.527 l 0,49.805 -17.441,-0.234 c -7.285,-0.137 -10.106,-0.957 -11.98,-3.77 -1.309,-1.992 -1.665,-2.812 -2.012,-3.64 -0.356,-0.95 -0.703,-1.184 -1.184,-1.184 -0.351,0 -0.597,0.352 -0.597,1.066 0,1.18 2.367,11.317 2.601,12.254 0.231,0.723 0.711,2.227 1.192,2.227 0.808,0 1.992,-1.16 5.183,-1.414 3.391,-0.344 7.859,-0.578 9.285,-0.578 l 44.145,0 c 7.527,0 10.672,1.164 11.629,1.164 0.605,0 0.605,-0.676 0.605,-1.399 0,-3.535 -0.351,-11.668 -0.351,-12.968 0,-1.055 -0.352,-1.543 -0.84,-1.543 -0.586,0 -0.821,0.351 -0.957,2.011 l -0.11,1.309 c -0.437,3.516 -3.132,6.211 -14.441,6.465 l -14.844,0.234 0,-49.805"
               inkscape:connector-curvature="0" />
            <path
               id="path5387"
               style="fill:#231f20;fill-opacity:1;fill-rule:nonzero;stroke:none"
               d="m 874.492,202.285 c 0,18.36 0,21.68 -0.215,25.442 -0.234,3.992 -1.172,5.886 -5.078,6.707 -0.937,0.234 -2.929,0.371 -4.004,0.371 -0.468,0 -0.918,0.215 -0.918,0.703 0,0.703 0.559,0.957 1.868,0.957 5.281,0 12.703,-0.371 13.289,-0.371 0.847,0 24.25,0 26.953,0.117 2.238,0.117 4.14,0.371 5.097,0.598 0.586,0.117 1.055,0.566 1.641,0.566 0.344,0 0.437,-0.449 0.437,-1.047 0,-0.82 -0.574,-2.234 -0.906,-5.547 -0.117,-1.172 -0.351,-6.347 -0.586,-7.761 -0.136,-0.598 -0.351,-1.321 -0.82,-1.321 -0.723,0 -0.977,0.606 -0.977,1.543 0,0.828 -0.097,2.852 -0.703,4.258 -0.808,1.875 -1.992,3.281 -8.34,3.965 -2.011,0.254 -14.851,0.371 -16.14,0.371 -0.469,0 -0.715,-0.371 -0.715,-1.191 l 0,-32.442 c 0,-0.84 0.129,-1.191 0.715,-1.191 1.512,0 16.023,0 18.726,0.234 2.805,0.234 4.465,0.488 5.532,1.641 0.828,0.918 1.297,1.504 1.785,1.504 0.351,0 0.586,-0.235 0.586,-0.938 0,-0.644 -0.586,-2.676 -0.957,-6.582 -0.235,-2.383 -0.489,-6.68 -0.489,-7.5 0,-0.976 0,-2.266 -0.8,-2.266 -0.606,0 -0.848,0.469 -0.848,1.075 0,1.191 0,2.363 -0.441,3.886 -0.489,1.622 -1.563,3.614 -6.133,4.082 -3.172,0.372 -14.844,0.606 -16.824,0.606 -0.606,0 -0.852,-0.352 -0.852,-0.82 l 0,-10.372 c 0,-3.964 -0.098,-17.636 0,-20.136 0.359,-8.106 2.121,-9.649 13.652,-9.649 3.086,0 8.223,0 11.321,1.309 3.074,1.289 4.48,3.672 5.293,8.457 0.242,1.309 0.488,1.777 1.05,1.777 0.696,0 0.696,-0.937 0.696,-1.777 0,-0.918 -0.938,-8.926 -1.504,-11.367 -0.828,-3.086 -1.758,-3.086 -6.367,-3.086 -17.762,0 -25.645,0.722 -29.082,0.722 -0.586,0 -8.008,-0.351 -11.543,-0.351 -1.258,0 -1.844,0.234 -1.844,0.937 0,0.352 0.223,0.723 0.918,0.723 1.043,0 2.469,0.234 3.535,0.469 2.371,0.469 2.957,3.027 3.426,6.445 0.566,4.922 0.566,14.238 0.566,25.527 l 0,20.723"
               inkscape:connector-curvature="0" />
            <path
               id="path5389"
               style="fill:#231f20;fill-opacity:1;fill-rule:nonzero;stroke:none"
               d="m 947.109,158.516 c -11.425,10.273 -14.238,23.632 -14.238,34.824 0,7.89 2.695,21.68 13.164,32.168 7.09,7.031 17.793,12.578 35.957,12.578 4.688,0 11.25,-0.359 17.07,-1.414 4.418,-0.813 8.228,-1.535 11.988,-1.75 1.25,-0.117 1.51,-0.606 1.51,-1.309 0,-0.957 -0.37,-2.363 -0.57,-6.59 -0.27,-3.886 -0.27,-10.343 -0.37,-12.121 -0.1,-1.777 -0.33,-2.5 -1.01,-2.5 -0.84,0 -0.96,0.84 -0.96,2.5 0,4.59 -1.9,9.414 -4.96,12.012 -4.1,3.496 -13.167,6.699 -23.518,6.699 -15.684,0 -22.969,-4.597 -27.117,-8.574 -8.606,-8.242 -10.578,-18.73 -10.578,-30.742 0,-22.5 17.324,-43.106 42.48,-43.106 8.828,0 15.783,1.055 20.473,5.918 2.52,2.598 4.04,7.754 4.39,9.883 0.23,1.309 0.47,1.797 1.17,1.797 0.57,0 0.78,-0.84 0.78,-1.797 0,-0.84 -1.36,-11.054 -2.54,-15.097 -0.7,-2.188 -0.93,-2.422 -3.08,-3.36 -4.73,-1.894 -13.673,-2.734 -21.193,-2.734 -17.656,0 -29.551,4.375 -38.848,12.715"
               inkscape:connector-curvature="0" />
            <path
               id="path5391"
               style="fill:#231f20;fill-opacity:1;fill-rule:nonzero;stroke:none"
               d="m 1112.15,181.562 c 0,-11.289 0,-20.605 0.58,-25.527 0.36,-3.418 1.08,-5.976 4.61,-6.445 1.62,-0.235 4.2,-0.469 5.28,-0.469 0.72,0 0.93,-0.371 0.93,-0.723 0,-0.586 -0.58,-0.937 -1.87,-0.937 -6.47,0 -13.87,0.351 -14.45,0.351 -0.59,0 -8.03,-0.351 -11.57,-0.351 -1.28,0 -1.87,0.234 -1.87,0.937 0,0.352 0.21,0.723 0.94,0.723 1.07,0 2.5,0.234 3.55,0.469 2.33,0.469 2.91,3.027 3.38,6.445 0.61,4.922 0.61,14.238 0.61,25.527 l 0,12.383 c 0,0.469 -0.38,0.703 -0.73,0.703 l -49.92,0 c -0.35,0 -0.68,-0.117 -0.68,-0.703 l 0,-12.383 c 0,-11.289 0,-20.605 0.56,-25.527 0.36,-3.418 1.08,-5.976 4.63,-6.445 1.66,-0.235 4.22,-0.469 5.26,-0.469 0.72,0 0.97,-0.371 0.97,-0.723 0,-0.586 -0.6,-0.937 -1.89,-0.937 -6.47,0 -13.89,0.351 -14.47,0.351 -0.59,0 -7.99,-0.351 -11.53,-0.351 -1.31,0 -1.91,0.234 -1.91,0.937 0,0.352 0.25,0.723 0.96,0.723 1.05,0 2.46,0.234 3.53,0.469 2.38,0.469 2.97,3.027 3.44,6.445 0.56,4.922 0.56,14.238 0.56,25.527 l 0,20.723 c 0,18.36 0,21.68 -0.23,25.442 -0.23,3.992 -1.15,5.886 -5.06,6.707 -0.94,0.234 -2.95,0.371 -4.02,0.371 -0.47,0 -0.92,0.215 -0.92,0.703 0,0.703 0.57,0.957 1.86,0.957 5.33,0 12.73,-0.371 13.32,-0.371 0.58,0 8,0.371 11.54,0.371 1.33,0 1.89,-0.254 1.89,-0.957 0,-0.488 -0.47,-0.703 -0.93,-0.703 -0.82,0 -1.55,-0.137 -2.97,-0.371 -3.19,-0.586 -4.12,-2.598 -4.38,-6.707 -0.21,-3.762 -0.21,-7.082 -0.21,-25.442 l 0,-2.48 c 0,-0.567 0.33,-0.664 0.68,-0.664 l 49.92,0 c 0.35,0 0.73,0.097 0.73,0.664 l 0,2.48 c 0,18.36 0,21.68 -0.26,25.442 -0.23,3.992 -1.17,5.886 -5.02,6.707 -0.95,0.234 -2.99,0.371 -4.02,0.371 -0.49,0 -0.98,0.215 -0.98,0.703 0,0.703 0.61,0.957 1.92,0.957 5.29,0 12.73,-0.371 13.32,-0.371 0.58,0 7.98,0.371 11.5,0.371 1.29,0 1.88,-0.254 1.88,-0.957 0,-0.488 -0.47,-0.703 -0.94,-0.703 -0.82,0 -1.51,-0.137 -2.89,-0.371 -3.23,-0.586 -4.18,-2.598 -4.4,-6.707 -0.23,-3.762 -0.23,-7.082 -0.23,-25.442 l 0,-20.723"
               inkscape:connector-curvature="0" />
            <path
               id="path5393"
               style="fill:#231f20;fill-opacity:1;fill-rule:nonzero;stroke:none"
               d="m 1157.25,163.457 c 0.23,-9.668 1.36,-12.715 4.57,-13.633 2.24,-0.605 4.84,-0.703 5.88,-0.703 0.58,0 0.91,-0.234 0.91,-0.723 0,-0.703 -0.68,-0.937 -2.07,-0.937 -6.74,0 -11.4,0.351 -12.48,0.351 -1.07,0 -6.01,-0.351 -11.31,-0.351 -1.19,0 -1.89,0.098 -1.89,0.937 0,0.489 0.35,0.723 0.94,0.723 0.95,0 3.08,0.098 4.86,0.703 2.91,0.801 3.5,4.199 3.5,14.922 l 0.13,67.442 c 0,4.621 0.35,5.898 1.29,5.898 0.94,0 2.97,-2.578 4.14,-3.77 1.76,-1.992 19.3,-20.957 37.42,-40.371 11.66,-12.5 24.48,-26.816 28.25,-30.742 l -1.31,59.817 c -0.1,7.625 -0.96,10.242 -4.57,11.179 -2.11,0.469 -4.83,0.606 -5.78,0.606 -0.82,0 -0.96,0.332 -0.96,0.82 0,0.703 0.96,0.84 2.36,0.84 5.3,0 10.96,-0.371 12.27,-0.371 1.31,0 5.17,0.371 10,0.371 1.29,0 2.11,-0.137 2.11,-0.84 0,-0.488 -0.47,-0.82 -1.27,-0.82 -0.61,0 -1.43,0 -2.85,-0.371 -3.89,-0.821 -4.38,-3.438 -4.38,-10.469 l -0.23,-68.985 c 0,-7.773 -0.24,-8.339 -1.06,-8.339 -0.92,0 -2.3,1.289 -8.59,7.519 -1.27,1.192 -18.24,18.457 -30.68,31.895 -13.68,14.687 -27,29.55 -30.73,33.789 l 1.53,-56.387"
               inkscape:connector-curvature="0" />
            <path
               id="path5395"
               style="fill:#231f20;fill-opacity:1;fill-rule:nonzero;stroke:none"
               d="m 1275.39,181.562 c 0,-11.289 0,-20.605 0.61,-25.527 0.35,-3.418 1.05,-5.976 4.61,-6.445 1.64,-0.235 4.21,-0.469 5.27,-0.469 0.7,0 0.94,-0.371 0.94,-0.723 0,-0.586 -0.59,-0.937 -1.88,-0.937 -6.48,0 -13.89,0.351 -14.47,0.351 -0.59,0 -7.99,-0.351 -11.54,-0.351 -1.31,0 -1.9,0.234 -1.9,0.937 0,0.352 0.24,0.723 0.94,0.723 1.07,0 2.5,0.234 3.55,0.469 2.35,0.469 2.95,3.027 3.4,6.445 0.57,4.922 0.57,14.238 0.57,25.527 l 0,20.723 c 0,18.36 0,21.68 -0.22,25.442 -0.21,3.992 -1.4,6.003 -3.98,6.589 -1.29,0.352 -2.85,0.489 -3.67,0.489 -0.47,0 -0.94,0.215 -0.94,0.703 0,0.703 0.59,0.957 1.87,0.957 3.93,0 11.33,-0.371 11.92,-0.371 0.58,0 7.99,0.371 11.56,0.371 1.27,0 1.86,-0.254 1.86,-0.957 0,-0.488 -0.49,-0.703 -0.94,-0.703 -0.82,0 -1.52,-0.137 -2.93,-0.371 -3.22,-0.586 -4.16,-2.598 -4.4,-6.707 -0.23,-3.762 -0.23,-7.082 -0.23,-25.442 l 0,-20.723"
               inkscape:connector-curvature="0" />
            <path
               id="path5397"
               style="fill:#231f20;fill-opacity:1;fill-rule:nonzero;stroke:none"
               d="m 1315.06,195.352 c 0,25.761 14.74,38.742 34.39,38.742 18.6,0 35.78,-15.207 35.78,-43.469 0,-34.238 -21.91,-40.352 -32.5,-40.352 -21.19,0 -37.67,17.676 -37.67,45.079 z m 73.12,-56.485 c 19.07,-10.488 34.22,-15.801 48.5,-15.801 17.42,0 30.61,5.079 37.3,8.125 0.73,0.371 0.96,0.704 0.96,1.172 0,0.352 -0.23,0.703 -0.72,0.703 -0.35,0 -0.94,-0.234 -1.66,-0.488 -8.09,-3.242 -17.29,-4.551 -23.18,-4.551 -5.88,0 -23.76,0.606 -49.56,13.848 l -24.14,12.5 c 7.78,5.117 20.86,18.848 20.86,39.57 0,27.285 -19.78,44.141 -46.25,44.141 -32.5,0 -46.4,-26.973 -46.4,-46.055 0,-21.172 13.41,-46.23 46.05,-46.23 6.21,0 14.22,1.758 18.46,4.023 l 19.78,-10.957"
               inkscape:connector-curvature="0" />
            <path
               id="path5399"
               style="fill:#231f20;fill-opacity:1;fill-rule:nonzero;stroke:none"
               d="m 1418.79,202.285 c 0,18.36 0,21.68 -0.24,25.442 -0.23,3.992 -1.17,5.886 -5.09,6.707 -0.94,0.234 -2.93,0.371 -3.99,0.371 -0.45,0 -0.93,0.215 -0.93,0.703 0,0.703 0.6,0.957 1.87,0.957 5.31,0 12.48,-0.371 13.55,-0.371 1.06,0 8.09,0.371 11.65,0.371 1.32,0 1.89,-0.254 1.89,-0.957 0,-0.488 -0.49,-0.703 -0.92,-0.703 -0.86,0 -1.56,-0.137 -2.99,-0.371 -3.18,-0.457 -4.1,-2.598 -4.33,-6.707 -0.24,-3.762 -0.24,-7.082 -0.24,-25.442 l 0,-16.465 c 0,-16.933 3.75,-24.277 8.85,-29.062 5.74,-5.449 11.06,-6.485 17.75,-6.485 7.17,0 14.22,3.399 18.48,8.497 5.41,6.679 6.82,16.699 6.82,28.828 l 0,14.687 c 0,18.36 0,21.68 -0.24,25.442 -0.23,3.992 -1.17,5.886 -5.04,6.707 -0.93,0.234 -2.94,0.371 -4.02,0.371 -0.49,0 -0.94,0.215 -0.94,0.703 0,0.703 0.57,0.957 1.88,0.957 5.31,0 11.8,-0.371 12.5,-0.371 0.82,0 6.33,0.371 9.9,0.371 1.29,0 1.86,-0.254 1.86,-0.957 0,-0.488 -0.45,-0.703 -0.92,-0.703 -0.82,0 -1.54,0 -2.97,-0.371 -3.2,-0.586 -4.12,-2.598 -4.36,-6.707 -0.25,-3.762 -0.25,-7.082 -0.25,-25.442 l 0,-12.597 c 0,-12.676 -1.39,-26.836 -10.82,-35.196 -8.46,-7.519 -17.29,-8.691 -24.26,-8.691 -3.96,0 -15.86,0.469 -24.22,8.359 -5.78,5.547 -10.23,13.789 -10.23,30.957 l 0,17.168"
               inkscape:connector-curvature="0" />
            <path
               id="path5401"
               style="fill:#231f20;fill-opacity:1;fill-rule:nonzero;stroke:none"
               d="m 1523.3,202.285 c 0,18.36 0,21.68 -0.23,25.442 -0.24,3.992 -1.18,5.886 -5.08,6.707 -0.92,0.234 -2.91,0.371 -3.99,0.371 -0.46,0 -0.93,0.215 -0.93,0.703 0,0.703 0.58,0.957 1.87,0.957 5.29,0 12.72,-0.371 13.3,-0.371 0.8,0 24.26,0 26.96,0.117 2.22,0.117 4.1,0.371 5.05,0.598 0.59,0.117 1.08,0.566 1.66,0.566 0.38,0 0.47,-0.449 0.47,-1.047 0,-0.82 -0.58,-2.234 -0.95,-5.547 -0.1,-1.172 -0.36,-6.347 -0.59,-7.761 -0.12,-0.598 -0.35,-1.321 -0.82,-1.321 -0.72,0 -0.96,0.606 -0.96,1.543 0,0.828 -0.1,2.852 -0.7,4.258 -0.8,1.875 -1.99,3.281 -8.34,3.965 -1.99,0.254 -14.82,0.371 -16.13,0.371 -0.45,0 -0.71,-0.371 -0.71,-1.191 l 0,-32.442 c 0,-0.84 0.14,-1.191 0.71,-1.191 1.52,0 15.99,0 18.73,0.234 2.81,0.234 4.45,0.488 5.49,1.641 0.85,0.918 1.3,1.504 1.79,1.504 0.35,0 0.59,-0.235 0.59,-0.938 0,-0.644 -0.59,-2.676 -0.94,-6.582 -0.25,-2.383 -0.49,-6.68 -0.49,-7.5 0,-0.976 0,-2.266 -0.82,-2.266 -0.56,0 -0.82,0.469 -0.82,1.075 0,1.191 0,2.363 -0.45,3.886 -0.49,1.622 -1.54,3.614 -6.13,4.082 -3.16,0.372 -14.82,0.606 -16.82,0.606 -0.58,0 -0.84,-0.352 -0.84,-0.82 l 0,-10.372 c 0,-3.964 -0.09,-17.636 0,-20.136 0.36,-8.106 2.15,-9.649 13.66,-9.649 3.04,0 8.24,0 11.27,1.309 3.1,1.289 4.53,3.672 5.33,8.457 0.25,1.309 0.49,1.777 1.05,1.777 0.72,0 0.72,-0.937 0.72,-1.777 0,-0.918 -0.93,-8.926 -1.52,-11.367 -0.82,-3.086 -1.78,-3.086 -6.39,-3.086 -17.79,0 -25.64,0.722 -29.06,0.722 -0.58,0 -8.01,-0.351 -11.52,-0.351 -1.29,0 -1.88,0.234 -1.88,0.937 0,0.352 0.24,0.723 0.94,0.723 1.06,0 2.46,0.234 3.48,0.469 2.38,0.469 2.97,3.027 3.45,6.445 0.59,4.922 0.59,14.238 0.59,25.527 l 0,20.723"
               inkscape:connector-curvature="0" />
            <path
               id="path5403"
               style="fill:#231f20;fill-opacity:1;fill-rule:nonzero;stroke:none"
               d="m 12.4766,61.0742 c 0,18.3399 0,21.6211 -0.2344,25.4102 -0.2344,4.0234 -1.1719,5.8594 -5.05861,6.6797 -0.9375,0.2343 -2.9414,0.3515 -4.00781,0.3515 -0.46484,0 -0.93359,0.2344 -0.93359,0.7032 0,0.7226 0.58984,0.957 1.88281,0.957 5.29297,0 12.707,-0.3711 13.2969,-0.3711 2.3515,0 26.2461,0 28.9609,0.1367 2.2344,0.1172 4.1172,0.1172 5.1719,0.4688 0.7187,0.2343 1.1836,0.7031 1.6484,0.7031 0.4844,0 0.7149,-0.4688 0.7149,-1.0547 0,-0.8398 -0.5938,-2.2461 -0.9492,-5.5078 -0.1094,-1.1914 -0.3477,-6.3867 -0.5899,-7.7539 -0.1055,-0.586 -0.3477,-1.3086 -0.9336,-1.3086 -0.5898,0 -0.8203,0.5859 -0.8203,1.4258 0,0.9179 -0.3555,2.9101 -1.0625,4.4336 -0.7109,1.5429 -3.4258,3.6718 -8.0039,3.789 l -18.1367,0.3711 c -0.6953,0 -1.0586,-0.3711 -1.0586,-1.3281 l 0,-32.5 c 0,-0.7227 0.125,-1.0547 0.8242,-1.0547 l 15.0742,0.1172 c 1.9961,0 3.6524,0 5.2969,0.1172 2.8242,0.2344 4.3555,0.5859 5.4062,2.1289 0.4766,0.6055 0.8321,1.1914 1.3047,1.1914 0.461,0 0.586,-0.3711 0.586,-0.957 0,-0.7032 -0.586,-2.7344 -0.9493,-6.5625 -0.2265,-2.3633 -0.4648,-7.1094 -0.4648,-7.9297 0,-1.0157 0,-2.2071 -0.8242,-2.2071 -0.5899,0 -0.8203,0.4688 -0.8203,1.0547 -0.1172,1.1524 -0.2422,2.793 -0.7071,4.2188 -0.5976,1.6601 -2.4726,3.789 -6.121,4.2578 -2.9454,0.3515 -15.7735,0.3515 -17.7813,0.3515 -0.5898,0 -0.8242,-0.2148 -0.8242,-1.0546 l 0,-10.0196 c 0,-11.289 0,-20.5859 0.5976,-25.5468 0.3555,-3.3985 1.0547,-5.99614 4.5899,-6.46489 1.6445,-0.2539 4.2422,-0.48828 5.2969,-0.48828 0.6992,0 0.9257,-0.35156 0.9257,-0.70312 0,-0.60547 -0.5742,-0.9375 -1.875,-0.9375 -6.4687,0 -13.8789,0.33203 -14.4765,0.33203 -0.5899,0 -8.00393,-0.33203 -11.53128,-0.33203 -1.30468,0 -1.88281,0.21484 -1.88281,0.9375 0,0.35156 0.23438,0.70312 0.9375,0.70312 1.0625,0 2.47266,0.23438 3.53907,0.48828 2.34762,0.46875 2.93752,3.06639 3.40622,6.46489 0.586,4.9609 0.586,14.2578 0.586,25.5468 l 0,20.7422"
               inkscape:connector-curvature="0" />
            <path
               id="path5405"
               style="fill:#231f20;fill-opacity:1;fill-rule:nonzero;stroke:none"
               d="m 116.301,111.211 c 0.574,-1.055 0,-1.426 -0.481,-1.426 -0.343,0 -1.519,0.254 -3.523,0 -5.774,-0.586 -14.004,-3.301 -17.8947,-4.961 -0.8164,-0.351 -1.5312,-0.586 -1.7656,-0.586 -0.2305,0 -0.5859,0.235 -0.5859,0.703 0,0.352 0.2304,0.606 0.8203,0.957 4.2461,2.95 15.1949,9.532 16.0159,10 1.996,1.192 2.707,1.543 3.293,1.543 0.347,0 0.586,-0.234 1.172,-1.074 0.824,-1.172 1.648,-2.832 2.949,-5.156 z M 82.1562,61.0742 c 0,18.3399 0,21.6211 -0.2304,25.4102 -0.2305,4.0234 -1.1719,5.8594 -5.0547,6.6797 -0.9531,0.2343 -2.9453,0.3515 -4.0156,0.3515 -0.461,0 -0.9375,0.2344 -0.9375,0.7032 0,0.7226 0.5937,0.957 1.8906,0.957 5.2969,0 12.7109,-0.3711 13.3008,-0.3711 0.8125,0 24.2456,0 26.9606,0.1367 2.231,0.1172 4.114,0.3516 5.055,0.5859 0.582,0.1172 1.063,0.586 1.645,0.586 0.355,0 0.468,-0.4688 0.468,-1.0547 0,-0.8398 -0.586,-2.2461 -0.933,-5.5078 -0.117,-1.1914 -0.356,-6.3867 -0.598,-7.7539 -0.117,-0.586 -0.352,-1.3086 -0.82,-1.3086 -0.703,0 -0.942,0.5859 -0.942,1.5234 0,0.8203 -0.113,2.8125 -0.711,4.2188 -0.816,1.914 -2,3.3203 -8.347,4.0234 -2.008,0.2539 -14.8323,0.3711 -16.1331,0.3711 -0.4727,0 -0.7031,-0.3711 -0.7031,-1.1914 l 0,-32.5 c 0,-0.8398 0.1172,-1.1914 0.7031,-1.1914 1.5313,0 16.0081,0 18.7231,0.2148 2.824,0.2539 4.468,0.4883 5.527,1.6602 0.828,0.9766 1.297,1.5625 1.766,1.5625 0.355,0 0.585,-0.2344 0.585,-0.957 0,-0.7032 -0.585,-2.7344 -0.937,-6.5625 -0.234,-2.3633 -0.473,-6.7579 -0.473,-7.5586 0,-0.9375 0,-2.2071 -0.828,-2.2071 -0.574,0 -0.816,0.4688 -0.816,1.0547 0,1.1524 0,2.3047 -0.481,3.8477 -0.461,1.6601 -1.519,3.6719 -6.113,4.1406 -3.184,0.3516 -14.8281,0.5859 -16.8359,0.5859 -0.5899,0 -0.8203,-0.332 -0.8203,-0.8203 l 0,-10.3711 c 0,-4.0234 -0.1172,-17.6367 0,-20.1172 0.3554,-8.125 2.1211,-9.6484 13.6522,-9.6484 3.059,0 8.242,0 11.301,1.3086 3.062,1.2891 4.48,3.6133 5.301,8.457 0.234,1.3086 0.468,1.7774 1.054,1.7774 0.707,0 0.707,-0.9571 0.707,-1.7774 0,-0.957 -0.941,-8.9453 -1.527,-11.42575 -0.828,-3.06641 -1.769,-3.06641 -6.355,-3.06641 -17.7778,0 -25.6645,0.6836 -29.0746,0.6836 -0.5899,0 -8.0039,-0.33203 -11.5391,-0.33203 -1.2969,0 -1.8867,0.21484 -1.8867,0.9375 0,0.35156 0.2422,0.70312 0.9453,0.70312 1.0547,0 2.4727,0.23438 3.5234,0.48828 2.3555,0.46875 2.9493,3.06639 3.4258,6.46489 0.5781,4.9609 0.5781,14.2578 0.5781,25.5468 l 0,20.7422"
               inkscape:connector-curvature="0" />
            <path
               id="path5407"
               style="fill:#231f20;fill-opacity:1;fill-rule:nonzero;stroke:none"
               d="m 163.855,62.9492 c 0,9.082 0,21.0352 0.122,25.0586 0,1.3086 0.339,1.8945 1.398,2.3633 0.953,0.4687 5.309,0.8398 7.652,0.8398 14.016,0 27.442,-1.6601 38.493,-13.3398 4.832,-5.0586 11.3,-14.707 11.3,-29.6484 0,-10.8399 -3.289,-22.1485 -9.414,-28.125 -6.941,-6.9336 -17.066,-10.95708 -28.015,-10.95708 -13.887,0 -18.489,2.48048 -20.016,4.70708 -0.941,1.3085 -1.176,5.9961 -1.281,8.9648 -0.117,2.1875 -0.239,13.0273 -0.239,25.5273 l 0,14.6094 z m -9.89,-22.6172 c 0,-11.289 0,-20.5859 -0.598,-25.5468 -0.457,-3.3985 -1.055,-5.99614 -3.418,-6.46489 -1.054,-0.2539 -2.461,-0.48828 -3.523,-0.48828 -0.703,0 -0.938,-0.35156 -0.938,-0.70312 0,-0.72266 0.586,-0.9375 1.887,-0.9375 3.523,0 10.945,0.33203 11.531,0.33203 1.172,0 16.004,-1.38672 26.133,-1.38672 20.012,0 30.598,8.26168 35.676,13.53518 6.586,6.9336 12.699,18.3593 12.699,33.2031 0,13.9844 -5.531,23.75 -11.41,29.9219 -14.016,14.4531 -35.547,13.3789 -47.199,13.3789 -7.071,0 -14.485,-0.3711 -15.899,-0.3711 -0.594,0 -8.008,0.3711 -13.301,0.3711 -1.289,0 -1.882,-0.2344 -1.882,-0.957 0,-0.4688 0.476,-0.7032 0.945,-0.7032 1.055,0 3.059,-0.1172 3.992,-0.3515 3.891,-0.8203 4.824,-2.6563 5.07,-6.6797 0.235,-3.7891 0.235,-7.0703 0.235,-25.4102 l 0,-20.7422"
               inkscape:connector-curvature="0" />
            <path
               id="path5409"
               style="fill:#231f20;fill-opacity:1;fill-rule:nonzero;stroke:none"
               d="m 291.328,111.211 c 0.59,-1.055 0,-1.426 -0.469,-1.426 -0.355,0 -1.527,0.254 -3.535,0 -5.762,-0.586 -14.008,-3.301 -17.89,-4.961 -0.825,-0.351 -1.536,-0.586 -1.762,-0.586 -0.234,0 -0.59,0.235 -0.59,0.703 0,0.352 0.227,0.606 0.816,0.957 4.243,2.95 15.184,9.532 16.008,10 2,1.192 2.715,1.543 3.301,1.543 0.352,0 0.59,-0.234 1.172,-1.074 0.824,-1.172 1.648,-2.832 2.949,-5.156 z m -34.14,-50.1368 c 0,18.3399 0,21.6211 -0.235,25.4102 -0.234,4.0234 -1.183,5.8594 -5.058,6.6797 -0.938,0.2343 -2.938,0.3515 -4.004,0.3515 -0.469,0 -0.938,0.2344 -0.938,0.7032 0,0.7226 0.586,0.957 1.887,0.957 5.281,0 12.703,-0.3711 13.301,-0.3711 0.82,0 24.238,0 26.953,0.1367 2.234,0.1172 4.109,0.3516 5.062,0.5859 0.59,0.1172 1.055,0.586 1.645,0.586 0.359,0 0.469,-0.4688 0.469,-1.0547 0,-0.8398 -0.594,-2.2461 -0.942,-5.5078 -0.117,-1.1914 -0.348,-6.3867 -0.582,-7.7539 -0.129,-0.586 -0.355,-1.3086 -0.82,-1.3086 -0.723,0 -0.953,0.5859 -0.953,1.5234 0,0.8203 -0.118,2.8125 -0.707,4.2188 -0.821,1.914 -1.996,3.3203 -8.36,4.0234 -1.996,0.2539 -14.824,0.3711 -16.125,0.3711 -0.472,0 -0.699,-0.3711 -0.699,-1.1914 l 0,-32.5 c 0,-0.8398 0.125,-1.1914 0.699,-1.1914 1.535,0 16.02,0 18.723,0.2148 2.828,0.2539 4.473,0.4883 5.531,1.6602 0.82,0.9766 1.297,1.5625 1.766,1.5625 0.355,0 0.59,-0.2344 0.59,-0.957 0,-0.7032 -0.59,-2.7344 -0.946,-6.5625 -0.242,-2.3633 -0.472,-6.7579 -0.472,-7.5586 0,-0.9375 0,-2.2071 -0.825,-2.2071 -0.586,0 -0.82,0.4688 -0.82,1.0547 0,1.1524 0,2.3047 -0.469,3.8477 -0.472,1.6601 -1.527,3.6719 -6.129,4.1406 -3.168,0.3516 -14.824,0.5859 -16.832,0.5859 -0.589,0 -0.816,-0.332 -0.816,-0.8203 l 0,-10.3711 c 0,-4.0234 -0.117,-17.6367 0,-20.1172 0.356,-8.125 2.117,-9.6484 13.656,-9.6484 3.063,0 8.239,0 11.297,1.3086 3.059,1.2891 4.465,3.6133 5.289,8.457 0.238,1.3086 0.485,1.7774 1.067,1.7774 0.707,0 0.707,-0.9571 0.707,-1.7774 0,-0.957 -0.953,-8.9453 -1.536,-11.42575 -0.82,-3.06641 -1.761,-3.06641 -6.351,-3.06641 -17.777,0 -25.652,0.6836 -29.07,0.6836 -0.598,0 -8.02,-0.33203 -11.539,-0.33203 -1.305,0 -1.879,0.21484 -1.879,0.9375 0,0.35156 0.234,0.70312 0.933,0.70312 1.059,0 2.473,0.23438 3.535,0.48828 2.344,0.46875 2.942,3.06639 3.411,6.46489 0.586,4.9609 0.586,14.2578 0.586,25.5468 l 0,20.7422"
               inkscape:connector-curvature="0" />
            <path
               id="path5411"
               style="fill:#231f20;fill-opacity:1;fill-rule:nonzero;stroke:none"
               d="m 338.406,89.3164 c 0,0.7031 0.36,1.1914 0.949,1.4063 1.168,0.3711 4.352,0.7226 7.879,0.7226 12.606,0 20.364,-8.8672 20.364,-23.5547 0,-8.9453 -3.063,-15.2929 -7.184,-18.125 -2.703,-1.914 -6,-2.2461 -8.82,-2.2461 -5.184,0 -10.594,0.8203 -12.367,1.875 -0.59,0.3711 -0.821,0.8203 -0.821,1.4258 l 0,38.4961 z M 328.988,40.332 c 0,-11.289 0,-20.5859 -0.586,-25.5468 -0.472,-3.3985 -1.058,-5.99614 -3.414,-6.46489 -1.05,-0.2539 -2.476,-0.48828 -3.531,-0.48828 -0.699,0 -0.937,-0.35156 -0.937,-0.70312 0,-0.72266 0.589,-0.9375 1.882,-0.9375 3.532,0 10.953,0.33203 11.067,0.33203 0.578,0 8,-0.33203 14.476,-0.33203 1.293,0 1.875,0.33203 1.875,0.9375 0,0.35156 -0.23,0.70312 -0.929,0.70312 -1.063,0 -3.653,0.23438 -5.313,0.48828 -3.519,0.46875 -4.223,3.06639 -4.578,6.46489 -0.594,4.9609 -0.594,14.2578 -0.594,25.5468 l 0,2.8321 c 0,0.5664 0.231,0.9375 0.821,0.9375 l 14.48,-0.2344 c 0.707,0 1.063,-0.2539 1.531,-0.7031 2.364,-3.0664 7.891,-10.9375 12.832,-17.4414 6.711,-8.8282 10.836,-14.5704 15.891,-17.30473 3.059,-1.66016 6.004,-2.22656 12.598,-2.22656 l 8.355,0 c 2.121,0 2.82,0.21484 2.82,0.9375 0,0.35156 -0.464,0.70312 -1.058,0.70312 -0.703,0 -2.356,0 -4.59,0.37109 -2.938,0.46876 -8,1.77735 -14.356,8.43748 -6.824,7.3242 -14.835,17.793 -24.492,30.1563 10.602,9.7656 14.246,18.457 14.246,27.1875 0,8.1445 -5.175,13.9062 -8.113,16.0351 -6.242,4.4336 -14.133,5.1563 -21.543,5.1563 -3.656,0 -12.594,-0.3711 -13.898,-0.3711 -0.575,0 -7.996,0.3711 -13.293,0.3711 -1.297,0 -1.883,-0.2344 -1.883,-0.957 0,-0.4688 0.461,-0.7032 0.937,-0.7032 1.067,0 3.063,-0.1172 4.004,-0.3515 3.895,-0.8203 4.825,-2.6563 5.055,-6.6797 0.238,-3.7891 0.238,-7.0703 0.238,-25.4102 l 0,-20.7422"
               inkscape:connector-curvature="0" />
            <path
               id="path5413"
               style="fill:#231f20;fill-opacity:1;fill-rule:nonzero;stroke:none"
               d="m 424.441,45.1367 c -0.336,0 -0.578,0.2344 -0.336,0.8399 l 10.36,31.7968 c 0.578,1.7774 1.16,1.7774 1.75,0 l 11.191,-31.7968 c 0.117,-0.4883 0.117,-0.8399 -0.476,-0.8399 l -22.489,0 z M 407.977,19.1602 c -2.122,-5.879 -4.477,-10.37114 -9.891,-11.09379 -0.941,-0.11719 -2.598,-0.23438 -3.422,-0.23438 -0.578,0 -1.055,-0.23437 -1.055,-0.70312 0,-0.72266 0.707,-0.9375 2.243,-0.9375 5.531,0 12,0.33203 13.293,0.33203 1.304,0 6.359,-0.33203 9.191,-0.33203 1.055,0 1.762,0.21484 1.762,0.9375 0,0.46875 -0.352,0.70312 -1.176,0.70312 l -1.176,0 c -2,0 -4.48,1.07422 -4.48,3.43747 0,2.1289 0.589,4.9024 1.648,7.8907 L 421.973,40 c 0.246,0.5664 0.593,0.918 1.187,0.918 l 25.301,0 c 0.594,0 0.828,-0.2149 1.066,-0.6836 l 10.946,-28.9649 c 0.711,-1.8945 0,-2.94919 -0.707,-3.20309 -0.473,-0.11719 -0.821,-0.35157 -0.821,-0.82032 0,-0.72265 1.285,-0.72265 3.528,-0.83984 8.125,-0.21484 16.715,-0.21484 18.48,-0.21484 1.297,0 2.352,0.21484 2.352,0.9375 0,0.58593 -0.461,0.70312 -1.18,0.70312 -1.172,0 -2.937,0.11719 -4.707,0.70313 -2.473,0.72265 -5.879,2.61714 -10.113,13.10544 -7.176,17.8711 -25.672,66.5039 -27.438,70.9571 -1.406,3.6523 -1.879,4.2382 -2.586,4.2382 -0.711,0 -1.172,-0.7226 -2.586,-4.5898 L 407.977,19.1602"
               inkscape:connector-curvature="0" />
            <path
               id="path5415"
               style="fill:#231f20;fill-opacity:1;fill-rule:nonzero;stroke:none"
               d="m 510.023,40.0977 c 0,-17.2852 0.481,-24.8633 2.59,-26.9336 1.891,-1.8946 4.949,-2.7149 14.125,-2.7149 6.239,0 11.41,0.1172 14.242,3.5352 1.532,1.8359 2.711,4.8047 3.059,7.0508 0.117,0.957 0.359,1.5429 1.066,1.5429 0.594,0 0.7,-0.4687 0.7,-1.7773 0,-1.3086 -0.825,-8.3399 -1.766,-11.77736 -0.812,-2.73438 -1.168,-3.1836 -7.406,-3.1836 -16.953,0 -24.731,0.6836 -31.555,0.6836 -1.055,0 -7.992,-0.33203 -11.527,-0.33203 -1.301,0 -1.891,0.21484 -1.891,0.9375 0,0.35156 0.238,0.70312 0.945,0.70312 1.059,0 2.473,0.23438 3.528,0.48828 2.351,0.46875 2.949,3.06639 3.422,6.46489 0.582,4.9609 0.582,14.2578 0.582,25.5468 l 0,20.7422 c 0,18.3399 0,21.6211 -0.235,25.4102 -0.238,4.0234 -1.172,5.8594 -5.054,6.6797 -0.953,0.2343 -2.95,0.3515 -4.012,0.3515 -0.477,0 -0.938,0.2344 -0.938,0.7032 0,0.7226 0.59,0.957 1.891,0.957 5.297,0 12.707,-0.3711 13.289,-0.3711 0.59,0 9.195,0.3711 12.719,0.3711 1.289,0 1.883,-0.2344 1.883,-0.957 0,-0.4688 -0.469,-0.7032 -0.953,-0.7032 -0.817,0 -2.473,-0.1172 -3.879,-0.3515 -3.407,-0.5664 -4.344,-2.5391 -4.59,-6.6797 -0.235,-3.7891 -0.235,-7.0703 -0.235,-25.4102 l 0,-20.9765"
               inkscape:connector-curvature="0" />
            <path
               id="path5417"
               style="fill:#231f20;fill-opacity:1;fill-rule:nonzero;stroke:none"
               d="m 569.82,61.0742 c 0,18.3399 0,21.6211 -0.238,25.4102 -0.234,4.0234 -1.168,5.8594 -5.062,6.6797 -0.942,0.2343 -2.938,0.3515 -4,0.3515 -0.469,0 -0.938,0.2344 -0.938,0.7032 0,0.7226 0.59,0.957 1.875,0.957 5.301,0 12.723,-0.3711 13.305,-0.3711 0.82,0 24.261,0 26.961,0.1367 2.238,0.1172 4.117,0.3516 5.054,0.5859 0.59,0.1172 1.055,0.586 1.653,0.586 0.359,0 0.472,-0.4688 0.472,-1.0547 0,-0.8398 -0.59,-2.2461 -0.941,-5.5078 -0.129,-1.1914 -0.363,-6.3867 -0.594,-7.7539 -0.117,-0.586 -0.355,-1.3086 -0.82,-1.3086 -0.707,0 -0.942,0.5859 -0.942,1.5234 0,0.8203 -0.117,2.8125 -0.707,4.2188 -0.82,1.914 -2.007,3.3203 -8.355,4.0234 -2.008,0.2539 -14.832,0.3711 -16.129,0.3711 -0.469,0 -0.711,-0.3711 -0.711,-1.1914 l 0,-32.5 c 0,-0.8398 0.125,-1.1914 0.711,-1.1914 1.527,0 16.012,0 18.711,0.2148 2.828,0.2539 4.477,0.4883 5.527,1.6602 0.836,0.9766 1.305,1.5625 1.778,1.5625 0.347,0 0.582,-0.2344 0.582,-0.957 0,-0.7032 -0.582,-2.7344 -0.938,-6.5625 -0.234,-2.3633 -0.469,-6.7579 -0.469,-7.5586 0,-0.9375 0,-2.2071 -0.824,-2.2071 -0.586,0 -0.82,0.4688 -0.82,1.0547 0,1.1524 0,2.3047 -0.477,3.8477 -0.476,1.6601 -1.531,3.6719 -6.117,4.1406 -3.183,0.3516 -14.84,0.5859 -16.844,0.5859 -0.578,0 -0.82,-0.332 -0.82,-0.8203 l 0,-10.3711 c 0,-4.0234 -0.109,-17.6367 0,-20.1172 0.356,-8.125 2.133,-9.6484 13.656,-9.6484 3.067,0 8.239,0 11.293,1.3086 3.063,1.2891 4.489,3.6133 5.309,8.457 0.234,1.3086 0.469,1.7774 1.062,1.7774 0.696,0 0.696,-0.9571 0.696,-1.7774 0,-0.957 -0.926,-8.9453 -1.524,-11.42575 -0.82,-3.06641 -1.765,-3.06641 -6.355,-3.06641 -17.778,0 -25.66,0.6836 -29.078,0.6836 -0.582,0 -8.004,-0.33203 -11.532,-0.33203 -1.296,0 -1.886,0.21484 -1.886,0.9375 0,0.35156 0.238,0.70312 0.941,0.70312 1.055,0 2.481,0.23438 3.531,0.48828 2.36,0.46875 2.934,3.06639 3.422,6.46489 0.582,4.9609 0.582,14.2578 0.582,25.5468 l 0,20.7422"
               inkscape:connector-curvature="0" />
            <path
               id="path5419"
               style="fill:#231f20;fill-opacity:1;fill-rule:nonzero;stroke:none"
               d="m 689.758,62.9492 c 0,9.082 0,21.0352 0.117,25.0586 0,1.3086 0.352,1.8945 1.426,2.3633 0.926,0.4687 5.297,0.8398 7.644,0.8398 14.004,0 27.422,-1.6601 38.489,-13.3398 4.832,-5.0586 11.296,-14.707 11.296,-29.6484 0,-10.8399 -3.296,-22.1485 -9.414,-28.125 -6.941,-6.9336 -17.07,-10.95708 -28.015,-10.95708 -13.887,0 -18.481,2.48048 -20,4.70708 -0.949,1.3085 -1.196,5.9961 -1.313,8.9648 -0.113,2.1875 -0.23,13.0273 -0.23,25.5273 l 0,14.6094 z M 679.867,40.332 c 0,-11.289 0,-20.5859 -0.578,-25.5468 -0.473,-3.3985 -1.066,-5.99614 -3.418,-6.46489 -1.066,-0.2539 -2.473,-0.48828 -3.523,-0.48828 -0.707,0 -0.942,-0.35156 -0.942,-0.70312 0,-0.72266 0.586,-0.9375 1.875,-0.9375 3.535,0 10.957,0.33203 11.539,0.33203 1.176,0 16.012,-1.38672 26.137,-1.38672 19.988,0 30.598,8.26168 35.664,13.53518 6.582,6.9336 12.707,18.3593 12.707,33.2031 0,13.9844 -5.527,23.75 -11.43,29.9219 -14.003,14.4531 -35.535,13.3789 -47.183,13.3789 -7.063,0 -14.477,-0.3711 -15.895,-0.3711 -0.582,0 -8.004,0.3711 -13.297,0.3711 -1.304,0 -1.882,-0.2344 -1.882,-0.957 0,-0.4688 0.464,-0.7032 0.925,-0.7032 1.075,0 3.079,-0.1172 4.016,-0.3515 3.875,-0.8203 4.832,-2.6563 5.063,-6.6797 0.222,-3.7891 0.222,-7.0703 0.222,-25.4102 l 0,-20.7422"
               inkscape:connector-curvature="0" />
            <path
               id="path5421"
               style="fill:#231f20;fill-opacity:1;fill-rule:nonzero;stroke:none"
               d="m 787.812,61.0742 c 0,18.3399 0,21.6211 -0.234,25.4102 -0.242,4.0234 -1.172,5.8594 -5.066,6.6797 -0.93,0.2343 -2.95,0.3515 -3.996,0.3515 -0.477,0 -0.95,0.2344 -0.95,0.7032 0,0.7226 0.586,0.957 1.887,0.957 5.293,0 12.703,-0.3711 13.301,-0.3711 0.832,0 24.25,0 26.934,0.1367 2.253,0.1172 4.16,0.3516 5.097,0.5859 0.586,0.1172 1.047,0.586 1.633,0.586 0.359,0 0.484,-0.4688 0.484,-1.0547 0,-0.8398 -0.601,-2.2461 -0.957,-5.5078 -0.113,-1.1914 -0.359,-6.3867 -0.574,-7.7539 -0.117,-0.586 -0.351,-1.3086 -0.801,-1.3086 -0.722,0 -0.976,0.5859 -0.976,1.5234 0,0.8203 -0.098,2.8125 -0.684,4.2188 -0.848,1.914 -2.019,3.3203 -8.359,4.0234 -2.012,0.2539 -14.863,0.3711 -16.145,0.3711 -0.468,0 -0.691,-0.3711 -0.691,-1.1914 l 0,-32.5 c 0,-0.8398 0.097,-1.1914 0.691,-1.1914 1.516,0 16.008,0 18.715,0.2148 2.82,0.2539 4.473,0.4883 5.547,1.6602 0.828,0.9766 1.297,1.5625 1.766,1.5625 0.351,0 0.586,-0.2344 0.586,-0.957 0,-0.7032 -0.586,-2.7344 -0.938,-6.5625 -0.234,-2.3633 -0.488,-6.7579 -0.488,-7.5586 0,-0.9375 0,-2.2071 -0.821,-2.2071 -0.585,0 -0.832,0.4688 -0.832,1.0547 0,1.1524 0,2.3047 -0.464,3.8477 -0.469,1.6601 -1.536,3.6719 -6.106,4.1406 -3.191,0.3516 -14.863,0.5859 -16.848,0.5859 -0.585,0 -0.808,-0.332 -0.808,-0.8203 l 0,-10.3711 c 0,-4.0234 -0.137,-17.6367 0,-20.1172 0.344,-8.125 2.07,-9.6484 13.633,-9.6484 3.066,0 8.242,0 11.32,1.3086 3.035,1.2891 4.461,3.6133 5.281,8.457 0.215,1.3086 0.449,1.7774 1.035,1.7774 0.723,0 0.723,-0.9571 0.723,-1.7774 0,-0.957 -0.957,-8.9453 -1.543,-11.42575 -0.801,-3.06641 -1.746,-3.06641 -6.328,-3.06641 -17.774,0 -25.645,0.6836 -29.082,0.6836 -0.598,0 -8.008,-0.33203 -11.531,-0.33203 -1.301,0 -1.875,0.21484 -1.875,0.9375 0,0.35156 0.214,0.70312 0.925,0.70312 1.075,0 2.481,0.23438 3.543,0.48828 2.356,0.46875 2.934,3.06639 3.403,6.46489 0.593,4.9609 0.593,14.2578 0.593,25.5468 l 0,20.7422"
               inkscape:connector-curvature="0" />
            <path
               id="path5423"
               style="fill:#231f20;fill-opacity:1;fill-rule:nonzero;stroke:none"
               d="m 907.754,40.0977 c 0,-17.2852 0.469,-24.8633 2.598,-26.9336 1.875,-1.8946 4.921,-2.7149 14.121,-2.7149 6.23,0 11.386,0.1172 14.238,3.5352 1.543,1.8359 2.715,4.8047 3.066,7.0508 0.118,0.957 0.352,1.5429 1.043,1.5429 0.586,0 0.715,-0.4687 0.715,-1.7773 0,-1.3086 -0.828,-8.3399 -1.758,-11.77736 -0.8,-2.73438 -1.172,-3.1836 -7.422,-3.1836 -16.953,0 -24.714,0.6836 -31.523,0.6836 -1.074,0 -8.02,-0.33203 -11.543,-0.33203 -1.309,0 -1.902,0.21484 -1.902,0.9375 0,0.35156 0.242,0.70312 0.933,0.70312 1.067,0 2.512,0.23438 3.547,0.48828 2.336,0.46875 2.93,3.06639 3.399,6.46489 0.605,4.9609 0.605,14.2578 0.605,25.5468 l 0,20.7422 c 0,18.3399 0,21.6211 -0.254,25.4102 -0.234,4.0234 -1.172,5.8594 -5.039,6.6797 -0.937,0.2343 -2.949,0.3515 -4.004,0.3515 -0.488,0 -0.957,0.2344 -0.957,0.7032 0,0.7226 0.606,0.957 1.895,0.957 5.3,0 12.734,-0.3711 13.32,-0.3711 0.566,0 9.18,0.3711 12.695,0.3711 1.27,0 1.875,-0.2344 1.875,-0.957 0,-0.4688 -0.488,-0.7032 -0.957,-0.7032 -0.808,0 -2.449,-0.1172 -3.847,-0.3515 -3.438,-0.5664 -4.375,-2.5391 -4.61,-6.6797 -0.234,-3.7891 -0.234,-7.0703 -0.234,-25.4102 l 0,-20.9765"
               inkscape:connector-curvature="0" />
            <path
               id="path5425"
               style="fill:#231f20;fill-opacity:1;fill-rule:nonzero;stroke:none"
               d="m 976.602,45.1367 c -0.352,0 -0.586,0.2344 -0.352,0.8399 l 10.352,31.7968 c 0.586,1.7774 1.191,1.7774 1.796,0 L 999.57,45.9766 c 0.137,-0.4883 0.137,-0.8399 -0.468,-0.8399 l -22.5,0 z M 960.156,19.1602 c -2.148,-5.879 -4.511,-10.37114 -9.883,-11.09379 -0.976,-0.11719 -2.628,-0.23438 -3.457,-0.23438 -0.586,0 -1.074,-0.23437 -1.074,-0.70312 0,-0.72266 0.723,-0.9375 2.266,-0.9375 5.527,0 12.012,0.33203 13.32,0.33203 1.289,0 6.328,-0.33203 9.199,-0.33203 1.055,0 1.739,0.21484 1.739,0.9375 0,0.46875 -0.332,0.70312 -1.153,0.70312 l -1.191,0 c -2.031,0 -4.512,1.07422 -4.512,3.43747 0,2.1289 0.586,4.9024 1.66,7.8907 L 974.121,40 c 0.234,0.5664 0.586,0.918 1.172,0.918 l 25.347,0 c 0.59,0 0.81,-0.2149 1.06,-0.6836 l 10.92,-28.9649 c 0.7,-1.8945 0,-2.94919 -0.71,-3.20309 -0.46,-0.11719 -0.8,-0.35157 -0.8,-0.82032 0,-0.72265 1.25,-0.72265 3.52,-0.83984 8.1,-0.21484 16.7,-0.21484 18.48,-0.21484 1.28,0 2.36,0.21484 2.36,0.9375 0,0.58593 -0.49,0.70312 -1.19,0.70312 -1.17,0 -2.95,0.11719 -4.67,0.70313 -2.5,0.72265 -5.94,2.61714 -10.14,13.10544 -7.2,17.8711 -25.681,66.5039 -27.419,70.9571 -1.406,3.6523 -1.875,4.2382 -2.598,4.2382 -0.703,0 -1.191,-0.7226 -2.598,-4.5898 L 960.156,19.1602"
               inkscape:connector-curvature="0" />
            <path
               id="path5427"
               style="fill:#231f20;fill-opacity:1;fill-rule:nonzero;stroke:none"
               d="m 1045.47,61.0742 c 0,18.3399 0,21.6211 -0.24,25.4102 -0.25,4.0234 -1.17,5.8594 -5.03,6.6797 -0.94,0.2343 -2.95,0.3515 -4.03,0.3515 -0.49,0 -0.96,0.2344 -0.96,0.7032 0,0.7226 0.61,0.957 1.92,0.957 5.27,0 12.48,-0.3711 13.51,-0.3711 1.06,0 8.15,0.3711 11.65,0.3711 1.3,0 1.87,-0.2344 1.87,-0.957 0,-0.4688 -0.43,-0.7032 -0.92,-0.7032 -0.84,0 -1.54,-0.1172 -2.95,-0.3515 -3.16,-0.4493 -4.12,-2.5391 -4.35,-6.6797 -0.22,-3.7891 -0.22,-7.0703 -0.22,-25.4102 l 0,-16.5234 c 0,-16.9531 3.77,-24.2188 8.81,-29.0625 5.78,-5.4102 11.08,-6.46486 17.77,-6.46486 7.17,0 14.28,3.43746 18.48,8.45706 5.43,6.7187 6.84,16.7383 6.84,28.8476 l 0,14.7461 c 0,18.3399 0,21.6211 -0.22,25.4102 -0.21,4.0234 -1.19,5.8594 -5.1,6.6797 -0.93,0.2343 -2.94,0.3515 -3.96,0.3515 -0.45,0 -0.94,0.2344 -0.94,0.7032 0,0.7226 0.59,0.957 1.86,0.957 5.29,0 11.76,-0.3711 12.48,-0.3711 0.82,0 6.37,0.3711 9.88,0.3711 1.29,0 1.9,-0.2344 1.9,-0.957 0,-0.4688 -0.47,-0.7032 -0.96,-0.7032 -0.82,0 -1.52,0 -2.97,-0.3515 -3.11,-0.5664 -4.08,-2.5391 -4.32,-6.6797 -0.23,-3.7891 -0.23,-7.0703 -0.23,-25.4102 l 0,-12.6172 c 0,-12.7539 -1.43,-26.8164 -10.82,-35.1758 -8.48,-7.57808 -17.29,-8.73042 -24.26,-8.73042 -3.98,0 -15.9,0.46875 -24.24,8.37892 -5.76,5.5078 -10.25,13.7305 -10.25,30.9375 l 0,17.207"
               inkscape:connector-curvature="0" />
            <path
               id="path5429"
               style="fill:#231f20;fill-opacity:1;fill-rule:nonzero;stroke:none"
               d="m 1142.44,7.71484 c -1.64,0.82032 -1.76,1.3086 -1.76,4.49216 0,5.8789 0.47,10.6055 0.61,12.461 0.12,1.2695 0.35,1.875 0.94,1.875 0.7,0 0.82,-0.3516 0.82,-1.2891 0,-1.0547 0,-2.6758 0.35,-4.3359 1.78,-8.711 9.55,-12.01175 17.42,-12.01175 11.31,0 16.82,8.10545 16.82,15.64455 0,8.1445 -3.38,12.832 -13.52,21.1719 l -5.31,4.3945 c -12.44,10.2344 -15.29,17.5195 -15.29,25.5078 0,12.6172 9.43,21.2109 24.35,21.2109 4.61,0 8.03,-0.4687 10.96,-1.1914 2.22,-0.4687 3.18,-0.5859 4.12,-0.5859 0.94,0 1.21,-0.2539 1.21,-0.8398 0,-0.586 -0.49,-4.4336 -0.49,-12.4219 0,-1.9141 -0.23,-2.7344 -0.84,-2.7344 -0.7,0 -0.82,0.6055 -0.94,1.543 -0.11,1.4062 -0.84,4.5703 -1.54,5.8789 -0.7,1.289 -3.87,6.2304 -14.67,6.2304 -8.16,0 -14.53,-5.0586 -14.53,-13.6523 0,-6.6992 3.32,-10.7031 14.42,-19.7656 l 3.24,-2.6172 c 13.9,-10.957 17.21,-18.2422 17.21,-27.6367 0,-4.8438 -1.86,-13.8086 -10,-19.55081 -5.08,-3.55469 -11.41,-4.94141 -17.78,-4.94141 -5.54,0 -10.94,0.82031 -15.8,3.16406"
               inkscape:connector-curvature="0" />
            <path
               id="path5431"
               style="fill:#231f20;fill-opacity:1;fill-rule:nonzero;stroke:none"
               d="m 1223.81,45.1367 c -0.35,0 -0.59,0.2344 -0.35,0.8399 l 10.37,31.7968 c 0.58,1.7774 1.15,1.7774 1.72,0 l 11.19,-31.7968 c 0.12,-0.4883 0.12,-0.8399 -0.49,-0.8399 l -22.44,0 z M 1207.3,19.1602 c -2.09,-5.879 -4.45,-10.37114 -9.9,-11.09379 -0.94,-0.11719 -2.56,-0.23438 -3.36,-0.23438 -0.6,0 -1.07,-0.23437 -1.07,-0.70312 0,-0.72266 0.7,-0.9375 2.23,-0.9375 5.52,0 11.97,0.33203 13.28,0.33203 1.29,0 6.38,-0.33203 9.18,-0.33203 1.05,0 1.75,0.21484 1.75,0.9375 0,0.46875 -0.35,0.70312 -1.15,0.70312 l -1.21,0 c -1.97,0 -4.41,1.07422 -4.41,3.43747 0,2.1289 0.58,4.9024 1.64,7.8907 L 1221.33,40 c 0.23,0.5664 0.6,0.918 1.19,0.918 l 25.29,0 c 0.57,0 0.8,-0.2149 1.04,-0.6836 l 10.95,-28.9649 c 0.71,-1.8945 0,-2.94919 -0.7,-3.20309 -0.47,-0.11719 -0.84,-0.35157 -0.84,-0.82032 0,-0.72265 1.31,-0.72265 3.58,-0.83984 8.1,-0.21484 16.68,-0.21484 18.47,-0.21484 1.31,0 2.37,0.21484 2.37,0.9375 0,0.58593 -0.49,0.70312 -1.2,0.70312 -1.17,0 -2.96,0.11719 -4.72,0.70313 -2.48,0.72265 -5.88,2.61714 -10.14,13.10544 -7.17,17.8711 -25.64,66.5039 -27.42,70.9571 -1.41,3.6523 -1.9,4.2382 -2.6,4.2382 -0.68,0 -1.15,-0.7226 -2.56,-4.5898 L 1207.3,19.1602"
               inkscape:connector-curvature="0" />
            <path
               id="path5433"
               style="fill:#231f20;fill-opacity:1;fill-rule:nonzero;stroke:none"
               d="m 1302.66,22.2266 c 0.25,-9.668 1.4,-12.73441 4.59,-13.69144 2.26,-0.58594 4.82,-0.70313 5.87,-0.70313 0.59,0 0.96,-0.23437 0.96,-0.70312 0,-0.72266 -0.72,-0.9375 -2.11,-0.9375 -6.74,0 -11.4,0.33203 -12.48,0.33203 -1.07,0 -6.01,-0.33203 -11.31,-0.33203 -1.19,0 -1.89,0.09765 -1.89,0.9375 0,0.46875 0.35,0.70312 0.94,0.70312 0.95,0 3.08,0.11719 4.84,0.70313 2.91,0.83984 3.52,4.27734 3.52,14.96094 l 0.09,67.4805 c 0,4.5507 0.37,5.8593 1.31,5.8593 0.96,0 2.97,-2.6171 4.16,-3.789 1.76,-1.9531 19.3,-20.918 37.4,-40.3516 11.68,-12.4609 24.46,-26.875 28.27,-30.7031 l -1.31,59.8047 c -0.14,7.6367 -0.94,10.2148 -4.57,11.1328 -2.13,0.4687 -4.87,0.5859 -5.8,0.5859 -0.82,0 -0.94,0.3516 -0.94,0.8203 0,0.7227 0.94,0.8399 2.36,0.8399 5.3,0 10.96,-0.3711 12.27,-0.3711 1.29,0 5.13,0.3711 10,0.3711 1.29,0 2.11,-0.1172 2.11,-0.8399 0,-0.4687 -0.47,-0.8203 -1.29,-0.8203 -0.59,0 -1.41,0 -2.83,-0.3515 -3.91,-0.8203 -4.36,-3.3789 -4.36,-10.4688 l -0.23,-68.9648 c 0,-7.793 -0.26,-8.35941 -1.06,-8.35941 -0.92,0 -2.34,1.28907 -8.59,7.55861 -1.31,1.1719 -18.26,18.4765 -30.74,31.8555 -13.64,14.7265 -26.96,29.5507 -30.69,33.8086 l 1.51,-56.3672"
               inkscape:connector-curvature="0" />
            <path
               id="path5435"
               style="fill:#231f20;fill-opacity:1;fill-rule:nonzero;stroke:none"
               d="m 1414.1,22.2266 c 0.26,-9.668 1.45,-12.73441 4.63,-13.69144 2.23,-0.58594 4.81,-0.70313 5.88,-0.70313 0.59,0 0.94,-0.23437 0.94,-0.70312 0,-0.72266 -0.71,-0.9375 -2.15,-0.9375 -6.68,0 -11.41,0.33203 -12.46,0.33203 -1.06,0 -6,-0.33203 -11.29,-0.33203 -1.17,0 -1.88,0.09765 -1.88,0.9375 0,0.46875 0.37,0.70312 0.96,0.70312 0.92,0 3.03,0.11719 4.79,0.70313 2.94,0.83984 3.55,4.27734 3.55,14.96094 l 0.12,67.4805 c 0,4.5507 0.35,5.8593 1.29,5.8593 0.93,0 2.95,-2.6171 4.1,-3.789 1.78,-1.9531 19.31,-20.918 37.44,-40.3516 11.64,-12.4609 24.49,-26.875 28.26,-30.7031 l -1.27,59.8047 c -0.13,7.6367 -0.96,10.2148 -4.61,11.1328 -2.15,0.4687 -4.84,0.5859 -5.76,0.5859 -0.82,0 -0.94,0.3516 -0.94,0.8203 0,0.7227 0.94,0.8399 2.35,0.8399 5.29,0 10.93,-0.3711 12.22,-0.3711 1.29,0 5.18,0.3711 10,0.3711 1.29,0 2.11,-0.1172 2.11,-0.8399 0,-0.4687 -0.45,-0.8203 -1.31,-0.8203 -0.58,0 -1.4,0 -2.79,-0.3515 -3.87,-0.8203 -4.35,-3.3789 -4.35,-10.4688 l -0.24,-68.9648 c 0,-7.793 -0.25,-8.35941 -1.05,-8.35941 -0.96,0 -2.37,1.28907 -8.58,7.55861 -1.33,1.1719 -18.24,18.4765 -30.76,31.8555 -13.63,14.7265 -26.93,29.5507 -30.72,33.8086 l 1.52,-56.3672"
               inkscape:connector-curvature="0" />
            <path
               id="path5437"
               style="fill:#231f20;fill-opacity:1;fill-rule:nonzero;stroke:none"
               d="m 1522.42,61.0742 c 0,18.3399 0,21.6211 -0.23,25.4102 -0.26,4.0234 -1.19,5.8594 -5.06,6.6797 -0.94,0.2343 -2.93,0.3515 -4.01,0.3515 -0.48,0 -0.93,0.2344 -0.93,0.7032 0,0.7226 0.58,0.957 1.87,0.957 5.28,0 12.74,-0.3711 13.3,-0.3711 0.82,0 24.26,0 26.98,0.1367 2.2,0.1172 4.06,0.3516 5.04,0.5859 0.58,0.1172 1.05,0.586 1.66,0.586 0.35,0 0.46,-0.4688 0.46,-1.0547 0,-0.8398 -0.58,-2.2461 -0.95,-5.5078 -0.12,-1.1914 -0.35,-6.3867 -0.59,-7.7539 -0.12,-0.586 -0.35,-1.3086 -0.84,-1.3086 -0.72,0 -0.94,0.5859 -0.94,1.5234 0,0.8203 -0.13,2.8125 -0.68,4.2188 -0.84,1.914 -2.01,3.3203 -8.4,4.0234 -1.97,0.2539 -14.78,0.3711 -16.07,0.3711 -0.49,0 -0.73,-0.3711 -0.73,-1.1914 l 0,-32.5 c 0,-0.8398 0.14,-1.1914 0.73,-1.1914 1.52,0 15.97,0 18.71,0.2148 2.83,0.2539 4.47,0.4883 5.53,1.6602 0.78,0.9766 1.27,1.5625 1.73,1.5625 0.38,0 0.61,-0.2344 0.61,-0.957 0,-0.7032 -0.61,-2.7344 -0.96,-6.5625 -0.25,-2.3633 -0.47,-6.7579 -0.47,-7.5586 0,-0.9375 0,-2.2071 -0.8,-2.2071 -0.6,0 -0.84,0.4688 -0.84,1.0547 0,1.1524 0,2.3047 -0.47,3.8477 -0.45,1.6601 -1.5,3.6719 -6.11,4.1406 -3.2,0.3516 -14.82,0.5859 -16.82,0.5859 -0.6,0 -0.84,-0.332 -0.84,-0.8203 l 0,-10.3711 c 0,-4.0234 -0.11,-17.6367 0,-20.1172 0.36,-8.125 2.15,-9.6484 13.68,-9.6484 3.02,0 8.24,0 11.29,1.3086 3.04,1.2891 4.45,3.6133 5.31,8.457 0.21,1.3086 0.45,1.7774 1.05,1.7774 0.71,0 0.71,-0.9571 0.71,-1.7774 0,-0.957 -0.96,-8.9453 -1.55,-11.42575 -0.82,-3.06641 -1.75,-3.06641 -6.36,-3.06641 -17.8,0 -25.67,0.6836 -29.07,0.6836 -0.56,0 -8.02,-0.33203 -11.5,-0.33203 -1.33,0 -1.9,0.21484 -1.9,0.9375 0,0.35156 0.24,0.70312 0.92,0.70312 1.06,0 2.48,0.23438 3.54,0.48828 2.34,0.46875 2.93,3.06639 3.4,6.46489 0.6,4.9609 0.6,14.2578 0.6,25.5468 l 0,20.7422"
               inkscape:connector-curvature="0" />
          </g>
        </g>
      </g>
    </g>
  </g>
  <g
     inkscape:label="Text English"
     id="layer_en"
     inkscape:groupmode="layer"
     style="display:inline"
     transform="translate(0,147.63782)">
    <text
       sodipodi:linespacing="125%"
       id="text2996"
       y="27.233521"
       x="81.819839"
       style="font-size:102.3046875px;font-style:normal;font-variant:normal;font-weight:900;font-stretch:normal;text-align:start;line-height:125%;letter-spacing:0px;word-spacing:0px;writing-mode:lr-tb;text-anchor:start;fill:#eeb306;fill-opacity:1;stroke:none;font-family:TitilliumText25L;-inkscape-font-specification:TitilliumText25L Heavy"
       xml:space="preserve"><tspan
         y="27.233521"
         x="81.819839"
         id="tspan2998"
         sodipodi:role="line">Helvetic Coding Contest</tspan></text>
  </g>
</svg>
